<svg viewBox="0 0 100 100" width="100%" height="100%"><path d="M64.2 46.1c1.1 0 2.1.9 2.1 2.1 0 1.1-.9 2.1-2.1 2.1h-3.7c-1.1 0-2.1-.9-2.1-2.1 0-1.1.9-2.1 2.1-2.1h3.7zm-50.9-3.6h67.6c1.1 0 2.1-.9 2.1-2.1v-2.5c0-4.1-3.4-7.5-7.5-7.5H62v4.1h13.5c1.9 0 3.4 1.5 3.4 3.3v.4H15.4v-.4c0-1.8 1.5-3.3 3.4-3.3h13v-4.1h-13c-4.1 0-7.5 3.4-7.5 7.5v2.5c0 1.2.9 2.1 2 2.1zm57.4 3.6c-1.1 0-2.1.9-2.1 2.1 0 1.1.9 2.1 2.1 2.1h3.7c1.1 0 2.1-.9 2.1-2.1 0-1.1-.9-2.1-2.1-2.1h-3.7zm10.2 0c-1.1 0-2.1.9-2.1 2.1v6.6l.2.1c1.2.7 2.3 1.6 3.3 2.4l.6.5v-9.7c.1-1-.9-2-2-2zM19.7 21c0-3.6 2.9-6.5 6.5-6.5s6.5 2.9 6.5 6.5-2.9 6.5-6.5 6.5-6.5-2.9-6.5-6.5zm6.5 2.8c1.5 0 2.8-1.2 2.8-2.8 0-1.5-1.2-2.8-2.8-2.8-1.5 0-2.8 1.2-2.8 2.8 0 1.6 1.2 2.8 2.8 2.8zm34.2-7.7h-8.8v18.4h7.8v-4.1h-4.1V19.8h5.1l-.1-.4c-.1-.4-.1-.9-.1-1.4 0-.5.1-.9.1-1.4l.1-.5zm2 1.9c0-3.6 2.9-6.5 6.5-6.5s6.5 2.9 6.5 6.5-2.9 6.5-6.5 6.5-6.5-3-6.5-6.5zm9.2 0c0-1.5-1.2-2.8-2.8-2.8-1.5 0-2.8 1.2-2.8 2.8 0 1.5 1.2 2.8 2.8 2.8 1.6-.1 2.8-1.3 2.8-2.8zm-28.9 1h-8.1l.1.4c.1.6.2 1.1.2 1.6 0 .4-.1.8-.1 1.3l-.1.4H39v7.7h-4.5v4.1h8.2V19zM19.9 63.4h3.7c1.1 0 2.1-.9 2.1-2.1 0-1.1-.9-2.1-2.1-2.1h-3.7c-1.1 0-2.1.9-2.1 2.1 0 1.2.9 2.1 2.1 2.1zM40.7 6.5c0-3.6 2.9-6.5 6.5-6.5s6.5 2.9 6.5 6.5-2.9 6.5-6.5 6.5c-3.6-.1-6.5-3-6.5-6.5zm6.4 2.7c1.5 0 2.8-1.2 2.8-2.8s-1.2-2.8-2.8-2.8-2.8 1.2-2.8 2.8 1.3 2.8 2.8 2.8zM45.7 15l-.4-.1v19.7H49V14.9l-.4.1c-.4.1-.9.1-1.4.1-.5 0-.9-.1-1.5-.1zm10.4 33.2c0-1.1-.9-2.1-2.1-2.1h-3.7c-1.1 0-2.1.9-2.1 2.1 0 1.1.9 2.1 2.1 2.1H54c1.2 0 2.1-1 2.1-2.1zm-6.6 8.6c.6-.5 1.2-.9 1.8-1.3l.1-.2v-.1c0-.1.1-.2.1-.4 0-1.1-.9-2.1-2.1-2.1h-4.7c-1.1 0-2.1.9-2.1 2.1 0 1.1.9 2.1 2.1 2.1h4.6l.2-.1zm-5.7 6.4c.7-1.2 1.6-2.3 2.5-3.3l.5-.6h-9c-1.1 0-2.1.9-2.1 2.1 0 1.1.9 2.1 2.1 2.1h5.8l.2-.3zm-3.2 19.7l-.1-.3H18.8c-1.9 0-3.4-1.5-3.4-3.3V48.2c0-1.1-.9-2.1-2.1-2.1s-2.1.9-2.1 2.1v31.1c0 4.1 3.4 7.5 7.5 7.5h23.1l-.2-.5c-.4-1.1-.7-2.2-1-3.4zm35-3.6c.5 1.5.3 3.5-.6 4.9-1.1 1.9-3.4 3.1-6.7 3.4v2.9h-3.7v-2.8h-.9v2.8H60v-2.8h-3.5v-3.9h1.7c.2 0 .4-.2.4-.4V70.3c0-.2-.2-.4-.4-.4h-1.7V66H60v-2.8h3.7V66h.9v-2.8h3.7v2.9c3.1.2 5.1 1.2 6 2.8.8 1.3.9 3 .3 4.4-.5 1.2-1.3 2.1-2.3 2.7 1.6.6 2.8 1.8 3.3 3.3zm-6-7.1c0-1.9-2.2-2.2-3.6-2.2h-2.3v4.8H66c1.8-.1 3.6-.8 3.6-2.6zm-5.8 11.5h2.7c1.4 0 2.7-.5 3.4-1.3.4-.5.6-1.1.5-1.9-.3-1.9-2.8-2.1-4.2-2.1h-2.4v5.3zm24.9-6.8c0 12.7-10.4 23.1-23.1 23.1S42.5 89.6 42.5 76.9s10.4-23.1 23.1-23.1 23.1 10.3 23.1 23.1zm-4.2 0C84.5 66.5 76 58 65.6 58s-18.9 8.5-18.9 18.9 8.5 18.9 18.9 18.9 18.9-8.5 18.9-18.9zM19.9 50.3h3.7c1.1 0 2.1-.9 2.1-2.1 0-1.1-.9-2.1-2.1-2.1h-3.7c-1.1 0-2.1.9-2.1 2.1 0 1.1.9 2.1 2.1 2.1zm13.5 2.4c-1.1 0-2.1.9-2.1 2.1 0 1.1.9 2.1 2.1 2.1h4.7c1.1 0 2.1-.9 2.1-2.1 0-1.1-.9-2.1-2.1-2.1h-4.7zm0 26.8c1.1 0 2.1-.9 2.1-2.1v-3.6c0-.1.1-.1.1-.1h4.5v-.3c.2-1.1.4-2.2.7-3.3l.1-.5h-5.3c-2.4 0-4.3 1.9-4.3 4.3v3.6c0 1.1.9 2 2.1 2zm-4.7-24.7c0-1.1-.9-2.1-2.1-2.1h-4.2c-1.1 0-2.1.9-2.1 2.1 0 1.1.9 2.1 2.1 2.1h4.2c1.2 0 2.1-1 2.1-2.1zm15.2-4.5c1.1 0 2.1-.9 2.1-2.1 0-1.1-.9-2.1-2.1-2.1h-3.7c-1.1 0-2.1.9-2.1 2.1 0 1.1.9 2.1 2.1 2.1h3.7zm-10.2-4.2H30c-1.1 0-2.1.9-2.1 2.1 0 1.1.9 2.1 2.1 2.1h3.7c1.1 0 2.1-.9 2.1-2.1 0-1.1-1-2.1-2.1-2.1zm-4.8 17.3h3.7c1.1 0 2.1-.9 2.1-2.1 0-1.1-.9-2.1-2.1-2.1h-3.7c-1.1 0-2.1.9-2.1 2.1 0 1.2.9 2.1 2.1 2.1z" /></svg>