<svg viewBox="0 0 100 100" width="100%" height="100%"><path d="M69 81.8L47 60.9l7.9-7.9 14 12.8L89.8 45l7.9 7.9L69 81.8zM39 15.6c1.8 0 3.2-1.4 3.2-3.2S40.8 9.2 39 9.2c-1.8 0-3.2 1.4-3.2 3.2s1.5 3.2 3.2 3.2zm-16.3 1.9H30V5.7c.1-3.2 3-5.7 6.6-5.7h4.8c3.6 0 6.5 2.6 6.5 5.7v11.8h6.8c3.6 0 6.5 2.6 6.5 5.7v3.6h-45v-3.6c0-3.2 2.9-5.7 6.5-5.7zm-3 17.8h-3.5v3.3h3.5v-3.3zm41.2 3.2v-3.3H24.4v3.3h36.5zM19.7 48.9h-3.5v3.3h3.5v-3.3zm4.7 0v3.3h26l3.3-3.3H24.4zm36.5 3.2v-3.3H55l3.3 3.3h2.6zm-41.2 9.7h-3.5V65h3.5v-3.2zm4.7 0V65H46l-3.3-3.3H24.4v.1zm-8.2 16h3.5v-3.3h-3.5v3.3zm8.2-3.4v3.3h34.2l-3.3-3.3H24.4zM77 52.9V13.4c0-3.5-2.9-6.5-6.5-6.5H52.1v6.6h15.6v46.3l1.1 1.1 8.2-8zm-8.1 33.2l-1.2-1v6H10V13.6h15V6.9H8.7c-3.5 0-6.4 3-6.4 6.5v80.1c0 3.6 2.9 6.5 6.5 6.5h61.7c3.6 0 6.5-2.9 6.5-6.5V78.1l-8.1 8z" /></svg>