<svg viewBox="0 0 100 100" width="100%" height="100%"><path d="M99.9 65.7c-.5 1.6.1 1.5-8.4 5.9S66.3 91.9 66.3 91.9 63 94.5 59.6 94c0 0-21.8 1.4-38.6.6-.3 0-.6-.1-.9-.1V66.7h.3C27.3 64.8 42 60 55.6 50.1c4-2.9 7.9-4.1 10.3-1.2 2.3 2.9 1 7.3-6.9 12.7-7.2 5-9.6 5.4-8.3 9.1 4.3 4.8 10.5 3.3 16.2 1.1 10.5-4 9.7-5.6 20.7-9 6.7-2.1 13.2-.3 12.3 2.9zm-86.7-4.1H0v37.2h12.9s2.8-.3 3-2.7c.2-7.3 0-28.7 0-31.1 0-2.9-2.7-3.4-2.7-3.4zm51.5-34.8c0 3-.7 5.9-1.8 8.4 7.6-1.8 13.3-8.6 13.3-16.8 0-9.5-7.7-17.2-17.2-17.2-4.7 0-9 1.9-12.1 5 10 1.5 17.8 10.2 17.8 20.6zm-38.1 0c0-9.5 7.7-17.2 17.2-17.2S61 17.3 61 26.8 53.3 44 43.8 44c-9.5.1-17.2-7.6-17.2-17.2zm5.9 0c0 6.2 5.1 11.3 11.3 11.3 6.2 0 11.3-5.1 11.3-11.3 0-6.2-5.1-11.3-11.3-11.3-6.2 0-11.3 5.1-11.3 11.3z" /></svg>