 <svg viewBox="0 0 100 100" width="100%" height="100%"><path d="M96.7 58.1v-.2c0-.1-.1-.3-.1-.4v-.1L80.1 14.6c-.2-.6-.8-1.1-1.5-1.3L56.7 8.1c-1-2.8-3.6-4.8-6.7-4.8-1.9 0-3.7.8-5 2.1L22.4.1c-1-.2-2.1.3-2.5 1.3L3.4 44.3v.1c0 .1-.1.2-.1.3v3.7c0 .6.2 1.1.6 1.5 4.8 4.8 11.4 7.2 18 7.2s13.2-2.4 18-7.2c.4-.4.6-.9.6-1.5v-3.7c0-.1 0-.2-.1-.3v-.1l-15-39.1L43 9.3c-.1.4-.1.7-.1 1.1 0 .4 0 .7.1 1.1-.1.2-.1.4-.1.6v61c-1.9.8-3.3 2.8-3.3 5v11.1h-7.8c-4.8 0-8.7 3.9-8.7 8.7 0 1.2 1 2.1 2.1 2.1h49.5c1.2 0 2.1-1 2.1-2.1 0-4.8-3.9-8.7-8.7-8.7h-7.8V78.1c0-2.2-1.4-4.2-3.3-5V12.6l18.1 4.3-15.5 40.5v.1c0 .1-.1.3-.1.4v3.7c0 .6.2 1.1.6 1.5 4.8 4.8 11.4 7.2 18 7.2s13.2-2.4 18-7.2c.4-.4.6-.9.6-1.5v-3.5zM36.3 47.4c-7.9 7.2-20.9 7.2-28.7 0v-.2h28.7v.2zm-1-4.5H8.6L21.9 8.1l13.4 34.8zM50 7.6c1.5 0 2.8 1.3 2.8 2.8 0 1.5-1.3 2.8-2.8 2.8-1.5 0-2.8-1.3-2.8-2.8 0-1.6 1.3-2.8 2.8-2.8zm-2.8 9.3c.9.4 1.8.6 2.8.6 1 0 1.9-.2 2.8-.6v55.7h-5.6V16.9zm24.9 78.8H27.9c.8-1.4 2.2-2.3 3.9-2.3h36.3c1.7 0 3.2.9 4 2.3zm-28.2-6.6v-11c0-.6.5-1.2 1.2-1.2H55c.6 0 1.2.5 1.2 1.2v11.1H43.9zm34.2-67.8l13.4 34.8H64.7l13.4-34.8zm14.3 39.3c-7.9 7.2-20.9 7.2-28.7 0v-.2h28.7v.2z" /></svg>