<svg viewBox="0 0 100 100" width="100%" height="100%"><path d="M67.6 61.1c.2-.3.4-.6.5-.9.2-.3.3-.5.3-.5 2.1-4 3.1-7.9 3.1-12.1 0-13.9-11.3-25.3-25.3-25.3C32.4 22.3 21 33.6 21 47.5c0 4.2 1 8.1 3.1 12.1 0 0 .1.2.3.5.2.3.4.6.5.9.1.1.2.2.3.4.4.7 1 1.5 1.7 2.4.5.6.9 1.2 1.5 1.8 1.7 2.1 3.8 4.7 4.4 6.2 1.3 3.5 1.6 6.1 1.6 6.1l.2 2.8H58l.2-2.8s.2-2.6 1.6-6.1c.6-1.5 2.7-4.1 4.4-6.2l1.5-1.8c.7-.9 1.3-1.8 1.7-2.5.1.1.2 0 .2-.2zm-8.2.8c-2.2 2.7-4.4 5.5-5.3 7.8-.7 1.9-1.2 3.7-1.5 5H40c-.3-1.3-.8-3.1-1.5-5-.9-2.4-3.2-5.2-5.3-7.8-.5-.6-1-1.2-1.4-1.7-1-1.3-1.7-2.4-2-3-1.8-3.2-2.6-6.3-2.6-9.6 0-10.6 8.6-19.1 19.1-19.1 10.6 0 19.1 8.6 19.1 19.1 0 3.3-.8 6.4-2.6 9.6-.3.5-1 1.6-2 3-.4.5-.9 1.1-1.4 1.7zm-10 22.5h8.9v4.2c0 .7-.1 3-1.5 4.6-1.2 1.4-3.2 1.9-4.5 2-.1.5-.2 1.3-.7 1.9-.8.9-2.2 1-2.8 1h-4.9v-1.5 1.5c-.6 0-2-.1-2.8-1-.5-.6-.7-1.4-.7-1.9-1.4-.1-3.3-.6-4.5-2-1.3-1.6-1.5-4-1.5-4.6v-4.2h15zm-4.3-50.7c.4 1.1-.3 2.4-1.4 2.7-4.4 1.4-7.8 5-9 9.5-.3 1-1.1 1.6-2.1 1.6-.2 0-.4 0-.5-.1-1.2-.3-1.9-1.5-1.6-2.7C32 39 36.6 34.1 42.4 32.3c1.1-.4 2.4.2 2.7 1.4zM43.2 14V5c0-1.7 1.4-3.1 3.1-3.1 1.7 0 3.1 1.4 3.1 3.1v9c0 1.7-1.4 3.1-3.1 3.1-1.7-.1-3.1-1.4-3.1-3.1zm-29.6 5.7c-1.2-1.2-1.2-3.1 0-4.4 1.2-1.2 3.1-1.2 4.4 0l6.4 6.4c1.2 1.2 1.2 3.1 0 4.4-.6.6-1.4.9-2.2.9-.8 0-1.6-.3-2.2-.9l-6.4-6.4zm-1.5 31.5h-9c-1.7 0-3.1-1.4-3.1-3.1C0 46.4 1.4 45 3.1 45h9c1.7 0 3.1 1.4 3.1 3.1 0 1.7-1.4 3.1-3.1 3.1zm56.1-25.1c-1.2-1.2-1.2-3.1 0-4.4l6.4-6.4c1.2-1.2 3.1-1.2 4.4 0 1.2 1.2 1.2 3.1 0 4.4l-6.4 6.4c-.6.6-1.4.9-2.2.9-.8 0-1.6-.3-2.2-.9zm11.5 19.7h11.6l-2.6-2.1c-1.3-1.1-1.7-2.7-.9-3.7.8-1 2.5-1 3.8.1l6.9 5.5c.2.2.5.4.6.7.5.4.9 1 .9 1.8 0 .6-.2 1-.5 1.4-.2.4-.6.8-1 1.2l-6.9 5.5c-1.3 1.1-3 1.1-3.8.1-.8-1-.4-2.7.9-3.7l2.9-2.3H79.7c-1.2 0-2.2-1-2.2-2.2-.1-1.3.9-2.3 2.2-2.3z" /></svg>