<svg viewBox="0 0 100 100" width="100%" height="100%"><path d="M69.7 90.3s0 .1 0 0c0 1.9-1.5 3.4-3.4 3.4h-7.5c-.1 3.5-2.9 6.3-6.4 6.3h-4.9c-3.5 0-6.3-2.8-6.4-6.3h-7.5c-1.9 0-3.4-1.5-3.4-3.4v-5h39.4v5zm-33-53V54c0 2.5 2 4.5 4.5 4.5h1.3v22.2h15V58.6h1.3c2.5 0 4.5-2 4.5-4.5V37.3c0-2.5-2-4.5-4.5-4.5h-4.7l-4.1 6-4.1-6h-4.7c-2.4-.1-4.5 2-4.5 4.5zM50 29.7c3.8 0 7.4-3.1 7.4-7.4 0-4.1-3.3-7.4-7.4-7.4-4.1 0-7.4 3.3-7.4 7.4 0 4.3 3.6 7.4 7.4 7.4zM50 0C29.7 0 13.2 16.5 13.2 36.8c0 9.2 4.4 15.6 8.6 21.8 4.4 6.4 8.5 12.5 8.5 22.1h6.4c0-11.5-5.1-19-9.6-25.6-4-5.9-7.5-11-7.5-18.3C19.6 20 33.2 6.4 50 6.4c16.8 0 30.4 13.7 30.4 30.4 0 6.7-3.2 11.6-7 17.2-4.5 6.8-9.6 14.5-9.6 26.7h6.4c0-10.2 4.3-16.8 8.5-23.2 3.9-6 8-12.1 8-20.7C86.8 16.5 70.3 0 50 0z" /></svg>