<svg x="0px" y="0px" width="864px" height="864px" viewBox="0 0 864 864" style="enable-background:new 0 0 864 864;" xml:space="preserve">
    <style type="text/css">
	.react-logo-st0{fill-rule:evenodd;clip-rule:evenodd;fill:#6FCFEF;}
</style>
    <g>
        <path class="react-logo-st0" d="M362.301,444.175c5.084-35.25,25.228-55.439,60-61c6,0,12,0,18,0c35.146,5.854,55.504,26.497,60,63
		c0,4,0,8,0,12c-5.055,82.369-131.098,84.643-138,1C362.301,454.175,362.301,449.175,362.301,444.175z"/>
        <path class="react-logo-st0" d="M59.301,444.175c13.908-67.312,95.318-96.773,155-118c-18.768-79.268-25.654-213.562,74-206
		c60.226,4.569,105.239,50.652,142,80c42.053-32.948,78.641-71.361,145-80c4.334,0,8.668,0,13,0c52.078,5.257,66.963,47.704,70,102
		c0,9,0,18,0,27c-0.172,28.495-5.273,52.06-10,76c29.816,12.215,64.98,23.313,95,43c26.924,17.656,57.451,42.351,61,77
		c2.871,28.032-10.352,42.364-22,58c-4.418,3.582-8.418,7.582-12,12c-32.443,28.556-74.637,47.362-121,62
		c3.965,24.702,9.883,47.451,10,76c0,10,0,20,0,30c-2.51,54.079-21.516,100.248-75,101c-63.377,0.892-116.52-52.872-152-81
		c-34.107,26.867-83.33,76.403-143,81c-62.922,4.848-82.723-45.202-85-105c0-7,0-14,0-21c-0.268-30.268,5.611-54.389,10-80
		c-54.717-22.191-125.234-43.855-150-98c-2.598-5.68-3.956-12.181-5-20C59.301,454.842,59.301,449.508,59.301,444.175z
		 M624.301,221.175c-3.746-26.774-6.188-54.327-25-64c-24.873-12.79-65.818,9.276-86,22c-23.27,14.673-41.807,32.621-57,45
		c21.412,25.255,43.441,49.892,63,77c34.457,2.544,65.197,8.803,95,16c5.197-20.138,8.098-42.569,10-66
		C625.967,243.497,625.967,228.853,624.301,221.175z M272.301,155.175c-50.269,17.423-34.221,111.401-25,162
		c30.555-6.779,61.124-13.543,96-16c19.395-27.272,41.389-51.946,63-77c-35.857-27.81-66.793-60.54-122-69
		C282.576,153.517,274.025,153.517,272.301,155.175z M458.301,297.175c4.334,0,8.668,0,13,0c-9.197-15.47-26.684-31.315-39-47
		c-16.593,13.073-28.877,30.456-42,47c3.667,0,7.334,0,11,0c8.334,0,16.667,0,25,0c4,0,8,0,12,0
		C444.969,297.175,451.635,297.175,458.301,297.175z M410.301,331.175c-15.85,0.816-31.957,1.375-47,3
		c-25.725,36.607-49.02,75.646-68,119c12.885,28.018,32.555,62.175,50,90c4.59,7.319,12.857,24.188,20,27
		c15.908,6.261,33.928-1.083,54,3c5.684,1.664,18.316,1.664,24,0c19.074-0.592,37.805-1.53,56-3c25.801-36.533,48.988-75.679,68-119
		c-20.217-41.782-41.709-82.29-69-117c-14.221-2.113-30.715-1.95-46-3c-1.387-2.28-6.961-0.373-10-1c-7.332,0-14.666,0-22,0
		C417.262,330.802,411.688,328.895,410.301,331.175z M256.301,352.175c7.046,19.288,12.74,39.926,21,58
		c11.814-25.186,26.112-47.888,40-71C296.49,343.03,273.841,345.048,256.301,352.175z M586.301,409.175
		c6.189-19.811,14.52-37.48,19-59c-19.953-2.715-40.615-10.049-60-10C560.268,361.876,572.635,386.174,586.301,409.175z
		 M145.301,393.175c-19.375,11.362-49.119,30.66-52,54c-1.878,15.219,6.842,27.284,14,35c26.575,28.642,76.474,48.342,116,62
		c6.894-24.396,14.912-47.652,24-70c2.988-7.347,9.263-16.878,9-23c-0.205-4.815-6.129-14.076-9-21
		c-8.898-21.461-18.47-50.853-25-70C196.181,369.093,171.658,377.719,145.301,393.175z M623.301,408.175
		c-3.883,10.57-17.242,34.635-17,44c0.148,5.686,6.107,15.023,9,22c9.686,23.357,17.418,44.478,24,69
		c42.84-13.897,88.715-31.116,116-61c6.941-7.603,15.182-20.334,15-31c-0.432-25.521-33.416-46.882-52-58
		c-25.15-15.047-50.629-23.117-78-33C634.855,373.389,630.057,389.793,623.301,408.175z M546.301,565.175
		c19.914-4.086,40.385-7.615,60-12c-6.322-20.344-12.355-40.978-21-59C574.088,518.962,556.723,542.929,546.301,565.175z
		 M257.301,553.175c19.191,3.478,40.106,10.559,60,10c-15.191-21.474-27.58-45.753-41-69
		C270.367,514.24,262.039,531.913,257.301,553.175z M238.301,680.175c3.343,38.97,10.108,75.392,53,69
		c45.316-6.753,91.544-49.076,115-71c-22.188-23.478-43.082-48.25-62-75c-34.023-3.31-65.34-9.327-96-16
		c-5.142,21.191-8.464,44.202-10,69C236.637,661.858,236.637,674.491,238.301,680.175z M625.301,659.175
		c-1.961-26.04-4.617-51.383-11-73c-28.895,8.438-61.844,12.822-95,17c-20.023,26.31-40.689,51.977-63,76
		c15.154,12.42,34.268,29.525,57,44c20.58,13.104,48.203,28.848,75,26c31.986-3.399,34.35-42.979,37-78
		C626.959,669.45,626.959,660.899,625.301,659.175z M408.301,607.175c-4.018-2.315-12.319-0.347-18-1c-0.053,1.721,0.77,2.563,2,3
		c12.895,15.439,25.115,31.552,40,45c13.082-15.251,26.934-29.732,39-46c5.576-3.113-12.75-2.615-15-1
		C438.266,607.349,426.041,607.596,408.301,607.175z"/>
    </g>
</svg>