<svg viewBox="0 0 100 100" width="100%" height="100%"><path d="M62.7 82.1l2.9 6.1H34.4l2.9-6.1 2.3-4.8 2.3-4.8c1.6-3.3 2.9-9.1 2.9-12.8V21.8h-6.1L50 2.3l11.2 19.5h-6.1v37.8c0 3.7 1.3 9.5 2.9 12.8l4.7 9.7zM37.2 59.6v-15h6.1L32 25.1 20.7 44.6h6.1v15c0 3.7-2.4 8.6-5.2 11L5.2 83.9c-.1 0-.1.1-.2.1l-5 4.2h23l6.8-10.7 3.6-5.5c2.1-3.1 3.8-8.7 3.8-12.4zm57.7 24.5c-.1 0-.1-.1-.2-.1L78.4 70.6c-2.9-2.3-5.2-7.3-5.2-11v-15h6.1L68 25.1 56.8 44.6h6.1v15c0 3.7 1.7 9.3 3.7 12.4l3.6 5.5L77 88.2h23l-5.1-4.1z" /></svg>