<svg x="0px" y="0px" width="864px" height="864px" viewBox="0 0 864 864" style="enable-background:new 0 0 864 864;" xml:space="preserve">
    <style type="text/css">
       
	.twig-st0{fill-rule:evenodd;clip-rule:evenodd;fill:#D6E18C;}
	.twig-st1{fill-rule:evenodd;clip-rule:evenodd;fill:#3F6932;}
	.twig-st2{fill-rule:evenodd;clip-rule:evenodd;fill:#A1C43A;}
	.twig-st3{fill-rule:evenodd;clip-rule:evenodd;fill:#758C39;}
	.twig-st4{fill-rule:evenodd;clip-rule:evenodd;fill:#76A741;}
	.twig-st5{fill-rule:evenodd;clip-rule:evenodd;fill:#A6A7A2;}
	.twig-st6{fill-rule:evenodd;clip-rule:evenodd;fill:#A7CF3A;}
	.twig-st7{fill-rule:evenodd;clip-rule:evenodd;fill:#DBE4A1;}
	.twig-st8{fill-rule:evenodd;clip-rule:evenodd;fill:#79933B;}
	.twig-st9{fill-rule:evenodd;clip-rule:evenodd;fill:#A9C538;}
	.twig-st10{fill-rule:evenodd;clip-rule:evenodd;fill:#DDE6C5;}
	.twig-st11{fill-rule:evenodd;clip-rule:evenodd;fill:#436F35;}
	.twig-st12{fill-rule:evenodd;clip-rule:evenodd;fill:#ABBB38;}
	.twig-st13{fill-rule:evenodd;clip-rule:evenodd;fill:#7CAF41;}
	.twig-st14{fill-rule:evenodd;clip-rule:evenodd;fill:#7E7F7C;}
	.twig-st15{fill-rule:evenodd;clip-rule:evenodd;fill:#ADD138;}
	.twig-st16{fill-rule:evenodd;clip-rule:evenodd;fill:#AECA4A;}
	.twig-st17{fill-rule:evenodd;clip-rule:evenodd;fill:#7FA03E;}
	.twig-st18{fill-rule:evenodd;clip-rule:evenodd;fill:#E4E4E3;}
	.twig-st19{fill-rule:evenodd;clip-rule:evenodd;fill:#E5EBB8;}
	.twig-st20{fill-rule:evenodd;clip-rule:evenodd;fill:#4C7637;}
	.twig-st21{fill-rule:evenodd;clip-rule:evenodd;fill:#B0C936;}
	.twig-st22{fill-rule:evenodd;clip-rule:evenodd;fill:#B1C136;}
	.twig-st23{fill-rule:evenodd;clip-rule:evenodd;fill:#82AE40;}
	.twig-st24{fill-rule:evenodd;clip-rule:evenodd;fill:#85B940;}
	.twig-st25{fill-rule:evenodd;clip-rule:evenodd;fill:#86983A;}
	.twig-st26{fill-rule:evenodd;clip-rule:evenodd;fill:#B6C98C;}
	.twig-st27{fill-rule:evenodd;clip-rule:evenodd;fill:#B6CD6E;}
	.twig-st28{fill-rule:evenodd;clip-rule:evenodd;fill:#B6D436;}
	.twig-st29{fill-rule:evenodd;clip-rule:evenodd;fill:#EAEED0;}
	.twig-st30{fill-rule:evenodd;clip-rule:evenodd;fill:#88A93E;}
	.twig-st31{fill-rule:evenodd;clip-rule:evenodd;fill:#B9C934;}
	.twig-st32{fill-rule:evenodd;clip-rule:evenodd;fill:#537C39;}
	.twig-st33{fill-rule:evenodd;clip-rule:evenodd;fill:#56883D;}
	.twig-st34{fill-rule:evenodd;clip-rule:evenodd;fill:#579E44;}
	.twig-st35{fill-rule:evenodd;clip-rule:evenodd;fill:#8CB453;}
	.twig-st36{fill-rule:evenodd;clip-rule:evenodd;fill:#BDBDBD;}
	.twig-st37{fill-rule:evenodd;clip-rule:evenodd;fill:#8FAD3D;}
	.twig-st38{fill-rule:evenodd;clip-rule:evenodd;fill:#8FB43E;}
	.twig-st39{fill-rule:evenodd;clip-rule:evenodd;fill:#F1F4E0;}
	.twig-st40{fill-rule:evenodd;clip-rule:evenodd;fill:#F2F1F0;}
	.twig-st41{fill-rule:evenodd;clip-rule:evenodd;fill:#F7FAEB;}
	.twig-st42{fill-rule:evenodd;clip-rule:evenodd;fill:#F9FAF7;}
	.twig-st43{fill-rule:evenodd;clip-rule:evenodd;fill:#5F9440;}
	.twig-st44{fill-rule:evenodd;clip-rule:evenodd;fill:#92958C;}
	.twig-st45{fill-rule:evenodd;clip-rule:evenodd;fill:#93BD3E;}
	.twig-st46{fill-rule:evenodd;clip-rule:evenodd;fill:#95B13C;}
	.twig-st47{fill-rule:evenodd;clip-rule:evenodd;fill:#97BB43;}
	.twig-st48{fill-rule:evenodd;clip-rule:evenodd;fill:#C8D98E;}
	.twig-st49{fill-rule:evenodd;clip-rule:evenodd;fill:#99C63D;}
	.twig-st50{fill-rule:evenodd;clip-rule:evenodd;fill:#66883A;}
	.twig-st51{fill-rule:evenodd;clip-rule:evenodd;fill:#66953F;}
	.twig-st52{fill-rule:evenodd;clip-rule:evenodd;fill:#9AB63B;}
	.twig-st53{fill-rule:evenodd;clip-rule:evenodd;fill:#CAD8AA;}
	.twig-st54{fill-rule:evenodd;clip-rule:evenodd;fill:#9BBC55;}
	.twig-st55{fill-rule:evenodd;clip-rule:evenodd;fill:#686A64;}
	.twig-st56{fill-rule:evenodd;clip-rule:evenodd;fill:#9EBE3C;}
	.twig-st57{fill-rule:evenodd;clip-rule:evenodd;fill:#9FC048;}
	.twig-st58{fill-rule:evenodd;clip-rule:evenodd;fill:#9FCC3B;}
	.twig-st59{fill-rule:evenodd;clip-rule:evenodd;fill:#6A9A40;}
	.twig-st60{fill-rule:evenodd;clip-rule:evenodd;fill:#6BAF45;}
	.twig-st61{fill-rule:evenodd;clip-rule:evenodd;fill:#6CA142;}
	.twig-st62{fill-rule:evenodd;clip-rule:evenodd;fill:#D3D3D2;}

    </style>
    <path class="twig-st40" d="M343.5,757.5c-3.001,1.488-9.266-1.029-13-2c5.429-0.763,7.75,1.584,13,1
	C343.5,756.833,343.5,757.167,343.5,757.5z"/>
    <path class="twig-st42" d="M291.5,770.5c-17.266-0.734-33.262-2.738-45-9c2.991-0.77,10.494-3.629,16-5c1.23,0.437,2.054,1.279,2,3
	c-1.71-0.044-2.59,0.743-3,2c2.641,6.026,11.378,5.955,19,7c0.333,0,0.667,0,1,0c1.893,1.774,6.605,0.729,10,1
	C291.5,769.833,291.5,770.167,291.5,770.5z"/>
    <path class="twig-st42" d="M362.5,757.5c0.097,2.57,3.903,1.43,4,4c-11.01,8.657-31.769,7.564-50,9c-0.248-1.086-1.988-0.678-2-2
	c5.333,0,10.667,0,16,0c12.178-0.488,22.079-3.255,32-6c-3.063-4.652-10.447-0.721-14-6c4.118-0.785,5.132,1.535,9,1
	C357.757,759.841,361.894,758.076,362.5,757.5z"/>
    <path class="twig-st42" d="M328.5,755.5c0-0.667,0-1.333,0-2c3.963,1.704,10.532,0.801,15,2c0,0.333,0,0.667,0,1
	c-5.25,0.584-7.571-1.763-13-1C329.833,755.5,329.167,755.5,328.5,755.5z"/>
    <path class="twig-st40" d="M268.5,758.5c-1.122-0.212-1.557-1.109-2-2c3.48,2.24,7.371-2.215,13-1c0,0.333,0,0.667,0,1
	C274.091,755.425,273.544,759.211,268.5,758.5z"/>
    <path class="twig-st18" d="M328.5,756.5c0-0.333,0-0.667,0-1c0.667,0,1.333,0,2,0c3.734,0.971,9.999,3.488,13,2
	c0.154,2.487-1.571,3.096-2,5C338.928,758.738,333.737,757.596,328.5,756.5z"/>
    <path class="twig-st40" d="M280.5,768.5c-7.622-1.045-16.359-0.974-19-7c0.41-1.257,1.29-2.044,3-2c1.927,0.406,0.79,3.877,4,3
	C270.015,766.984,276.608,766.392,280.5,768.5z"/>
    <path class="twig-st18" d="M279.5,756.5c-8.842,1.315-5.747,10.606,2,11c0,0.333,0,0.667,0,1c-0.333,0-0.667,0-1,0
	c-3.892-2.108-10.485-1.516-12-6c4.405,0.155,0.283-2.827,0-4C273.544,759.211,274.091,755.425,279.5,756.5z"/>
    <path class="twig-st18" d="M340.5,763.5c0,1,0,2,0,3c-3.492,0.509-7.55,0.45-10,2c-5.333,0-10.667,0-16,0c0.125-2.209,4.242-0.425,6-1
	C329.078,768.078,335.311,766.311,340.5,763.5z"/>
    <path class="twig-st55" d="M289.5,763.5c4.9-0.233,7.571,1.762,13,1c0.89,0.443,1.789,0.878,2,2c-5.226,0.226-9.983-0.017-14-1
	C290.503,764.497,289.69,764.31,289.5,763.5z"/>
    <path class="twig-st42" d="M266.5,756.5c-0.61-0.057-1.184-0.149-1-1c5.451,0.451,8.217-1.783,14-1c0,0.333,0,0.667,0,1
	C273.871,754.285,269.98,758.74,266.5,756.5z"/>
    <path class="twig-st51" d="M305.5,758.5c0,1.333,0,2.667,0,4s0,2.667,0,4c-0.333,0-0.667,0-1,0c-0.211-1.122-1.11-1.557-2-2c0-2,0-4,0-6
	c1.44-0.227,0.349-2.984,2-3C304.657,756.677,304.328,758.339,305.5,758.5z"/>
    <path class="twig-st40" d="M340.5,766.5c3.059,0.726,2.941-1.726,6-1c1.317-3.017,0.1-8.566,2-11c0,0.667,0,1.333,0,2
	c3.553,5.279,10.938,1.348,14,6c-9.921,2.745-19.822,5.512-32,6C332.95,766.95,337.008,767.009,340.5,766.5z"/>
    <path class="twig-st36" d="M280.5,758.5c-0.22,3.22,1.769,4.231,1,8C278.422,766.487,276.823,759.259,280.5,758.5z"/>
    <path class="twig-st8" d="M327.5,755.5c-0.528,4.195,1.747,5.586,2,9c-0.614,1.387-3.85,0.15-4,2c-1.667,0-3.333,0-5,0
	c0.022-2.355-1.723-2.944-1-6c0-1.667,0-3.333,0-5C323.927,755.976,324.473,754.124,327.5,755.5z"/>
    <path class="twig-st44" d="M290.5,765.5c4.017,0.983,8.774,1.226,14,1c0.333,0,0.667,0,1,0c0,0.333,0,0.667,0,1c-4.667,0-9.333,0-14,0
	C290.721,767.279,290.337,766.662,290.5,765.5z"/>
    <path class="twig-st62" d="M320.5,766.5c1.667,0,3.333,0,5,0c4.934-0.066,8.511-1.489,9-6c-1.37-1.963-6.03-0.637-6-4
	c5.237,1.096,10.428,2.238,13,6c-0.057,0.61-0.149,1.184-1,1c-5.189,2.811-11.422,4.578-20,4
	C320.5,767.167,320.5,766.833,320.5,766.5z"/>
    <path class="twig-st23" d="M320.5,767.5c-1.758,0.575-5.875-1.209-6,1c-4.118-0.785-5.132,1.535-9,1c0-0.667,0-1.333,0-2
	c0-0.333,0-0.667,0-1c0-1.333,0-2.667,0-4c6.505-0.226,8.064-0.379,14-2c-0.723,3.056,1.022,3.645,1,6
	C320.5,766.833,320.5,767.167,320.5,767.5z"/>
    <path class="twig-st40" d="M291.5,768.5c5.783-0.783,8.549,1.451,14,1c3.868,0.535,4.882-1.785,9-1c0.012,1.322,1.752,0.914,2,2
	c-8.333,0-16.667,0-25,0c0-0.333,0-0.667,0-1S291.5,768.833,291.5,768.5z"/>
    <path class="twig-st38" d="M311.5,754.5c2.356,0.022,2.944-1.723,6-1c0.333,0,0.667,0,1,0c0.224,0.775,0.027,1.973,1,2
	c0,1.667,0,3.333,0,5c-5.936,1.621-7.495,1.774-14,2c0-1.333,0-2.667,0-4c0-0.333,0-0.667,0-1c1.772-2.499,1.274-1.08,5-1
	C310.724,755.725,310.527,754.527,311.5,754.5z"/>
    <path class="twig-st36" d="M291.5,767.5c4.667,0,9.333,0,14,0c0,0.667,0,1.333,0,2c-5.451,0.451-8.217-1.783-14-1
	C291.5,768.167,291.5,767.833,291.5,767.5z"/>
    <g>
        <path class="twig-st30" d="M489.5,381.5c-1.85,0.15-0.613,3.386-2,4c-1.003,0.003-1.19-0.81-2-1c-2.032-2.017,1.691-3.384,4-4
		C489.5,380.833,489.5,381.167,489.5,381.5z"/>
        <path class="twig-st30" d="M489.5,395.5c-1.891-0.224-2.206,1.127-4,1c0.241-1.759,1.721-2.279,4-2c-3.791-3.208-9.161-1.449-13-6
		c3.467,0.361,6.501,2.349,6-3c4.781,0.451,4.219,0.451,9,0c0.701,4.368-1.701,5.632-1,10C490.167,395.5,489.833,395.5,489.5,395.5z
		"/>
        <path class="twig-st30" d="M474.5,391.5c0-0.333,0-0.667,0-1c4.165,0.502,5.835,3.498,10,4C481.569,397.039,476.091,393.619,474.5,391.5
		z"/>
        <path class="twig-st23" d="M472.5,402.5c0-0.333,0-0.667,0-1c2.176,3.824,9.101,2.899,11,7c0,0.667,0,1.333,0,2
		c-1.868-0.798-3.662-1.671-6-2C478.284,404.049,472.137,406.53,472.5,402.5z"/>
        <path class="twig-st33" d="M493.5,457.5c0.769,3.769-1.22,4.78-1,8c-0.572,10.761-2.556,20.111-2,32c-2.28,1.387-0.373,6.961-1,10
		c0,11.333,0,22.667,0,34c3.472,27.006-4.884,45.84-10,67c-1.003,0.003-1.19-0.81-2-1c-0.493-46.493,0.556-91.444,4-134
		c-0.066-5.066,1.719-8.281,1-14C485.005,456.871,491.766,462.203,493.5,457.5z"/>
        <path class="twig-st32" d="M490.5,497.5c-0.627,3.039,1.28,8.613-1,10C490.127,504.461,488.22,498.887,490.5,497.5z"/>
        <path class="twig-st45" d="M300.5,551.5c0.779,0.221,1.163,0.838,1,2c0.204,3.129-0.674,7.341,1,9c0,0.667,0,1.333,0,2
		c0,1.667,0,3.333,0,5c-5.569,0.431-2.88,9.119-10,8c-0.17-1.496,0.357-3.69-1-4c0-1.667,0-3.333,0-5c7.391-0.675,5.827-4.633,6-13
		c1.278,0.055,1.385,1.282,3,1C300.5,554.833,300.5,553.167,300.5,551.5z"/>
        <path class="twig-st26" d="M290.5,575.5c0.333,0,0.667,0,1,0c0,3.333,0,6.667,0,10c0,0.333,0,0.667,0,1c-0.333,0-0.667,0-1,0
		C290.5,582.833,290.5,579.167,290.5,575.5z"/>
        <path class="twig-st33" d="M477.5,610.5c0,4.333,0,8.667,0,13c0,0.333,0,0.667,0,1c-2.104-0.314-5.969-2.844-5,2c-0.333,0-0.667,0-1,0
		c-0.575-1.758,1.209-5.875-1-6c0-0.667,0-1.333,0-2C473.24,615.4,475.493,611.728,477.5,610.5z"/>
        <path class="twig-st61" d="M469.5,618.5c0.333,0,0.667,0,1,0c0,0.667,0,1.333,0,2c0,0.333,0,0.667,0,1c-3.458-0.792-4.222,1.111-6,2
		C463.629,619.296,467.82,620.154,469.5,618.5z"/>
        <path class="twig-st26" d="M291.5,622.5c0.333,0,0.667,0,1,0c0,4.333,0,8.667,0,13c-0.333,0-0.667,0-1,0
		C291.5,631.167,291.5,626.833,291.5,622.5z"/>
        <path class="twig-st52" d="M490.5,622.5c11.131-0.086,21.347,10.129,15,21c-0.057-0.61-0.149-1.184-1-1c2.285-4.965,0.863-13.943-4-15
		c-0.333,0-0.667,0-1,0c-1.079-2.921-4.762-3.238-9-3C490.5,623.833,490.5,623.167,490.5,622.5z"/>
        <path class="twig-st10" d="M291.5,635.5c0.333,0,0.667,0,1,0c0,4.667,0,9.333,0,14C290.196,646.805,292.145,639.855,291.5,635.5z"/>
        <path class="twig-st4" d="M301.5,637.5c0.941-4.812,8.082-0.655,10,0c0,0.333,0,0.667,0,1c0,1.333,0,2.667,0,4
		c-3.863,0.196-7.369,0.035-10-1c0-1,0-2,0-3C301.5,638.167,301.5,637.833,301.5,637.5z"/>
        <path class="twig-st13" d="M293.5,636.5c1.792,1.956,6.208,5.948,8,2c0,1,0,2,0,3s0,2,0,3c-3.923,0.256-3.717-3.617-8-3
		C293.5,639.833,293.5,638.167,293.5,636.5z"/>
        <path class="twig-st20" d="M485.5,645.5c0,1.333,0,2.667,0,4c0,0.333,0,0.667,0,1c-3.47-0.469-0.573,5.427-3,6
		c-2.917-0.188-1.263-2.889-4-5c0-0.667,0-1.333,0-2c0-1,0-2,0-3c2.111,1.328,2.955-0.493,6,1
		C484.724,646.725,484.527,645.527,485.5,645.5z"/>
        <path class="twig-st59" d="M312.5,647.5c0,0.667,0,1.333,0,2s0,1.333,0,2c-3.395,0.271-8.107-0.774-10,1c0-1.667,0-3.333,0-5
		C307.338,646.861,309.572,648.821,312.5,647.5z"/>
        <path class="twig-st51" d="M312.5,649.5c0.333,0,0.667,0,1,0c0,1,0,2,0,3c0,0.333,0,0.667,0,1c-4.125-0.125-6.262,1.738-11,1
		c0-0.667,0-1.333,0-2c1.893-1.774,6.605-0.729,10-1C312.5,650.833,312.5,650.167,312.5,649.5z"/>
        <path class="twig-st33" d="M478.5,649.5c0,0.667,0,1.333,0,2c0,2.333,0,4.667,0,7c-0.779-0.221-1.163-0.838-1-2
		c0.726-3.059-1.726-2.941-1-6C477.503,650.503,477.69,649.69,478.5,649.5z"/>
        <path class="twig-st32" d="M313.5,652.5c1.419,0.086,2.832,0.165,3-1c1.086,0.247,0.678,1.988,2,2c0,1.333,0,2.667,0,4
		c-1.891-0.225-2.207,1.127-4,1c-0.547-1.453,1.168-5.169-1-5C313.5,653.167,313.5,652.833,313.5,652.5z"/>
        <path class="twig-st56" d="M511.5,660.5c-0.633,3.367,1.288,9.288-1,11C511.133,668.133,509.212,662.212,511.5,660.5z"/>
        <path class="twig-st61" d="M472.5,689.5c2.3,2.366,0.358,8.976,1,13C471.2,700.134,473.142,693.524,472.5,689.5z"/>
        <path class="twig-st50" d="M481.5,689.5c0,1.333,0,2.667,0,4c-0.489,3.156,1.802,3.531,1,7c-0.333,0-0.667,0-1,0
		C479.843,699.1,479.843,690.9,481.5,689.5z"/>
        <path class="twig-st43" d="M481.5,700.5c0.333,0,0.667,0,1,0c0,2.333,0,4.667,0,7c-0.595,2.071,1.236,6.569-1,7
		C481.5,709.833,481.5,705.167,481.5,700.5z"/>
        <path class="twig-st11" d="M308.5,704.5c-0.564,2.436-0.856,5.144-4,5c0-1.333,0-2.667,0-4C306.242,705.575,307.61,705.276,308.5,704.5z
		"/>
        <path class="twig-st38" d="M509.5,707.5c0,1.333,0,2.667,0,4c-2.815,1.516-4.103-0.335-8,1c-0.224-0.775-0.027-1.973-1-2
		C501.908,706.629,507.578,708.561,509.5,707.5z"/>
        <path class="twig-st61" d="M473.5,716.5c0.333,0,0.667,0,1,0c-0.638,3.695,1.295,9.962-1,12C473.5,724.5,473.5,720.5,473.5,716.5z"/>
        <path class="twig-st32" d="M482.5,716.5c2.28,1.387,0.373,6.961,1,10c-0.333,0-0.667,0-1,0C482.5,723.167,482.5,719.833,482.5,716.5z"/>
        <path class="twig-st52" d="M326.5,729.5c0,1,0,2,0,3c-3.914-0.581-5.806,0.86-8,2c0-0.333,0-0.667,0-1c0-0.667,0-1.333,0-2
		c0.779-0.221,1.163-0.838,1-2C321.833,729.5,324.167,729.5,326.5,729.5z"/>
        <path class="twig-st2" d="M318.5,733.5c0,0.333,0,0.667,0,1c0,0.667,0,1.333,0,2c0,1,0,2,0,3c-6.737-0.324-8.827,1.941-13,2c0-1,0-2,0-3
		s0-2,0-3C311.42,736.42,313.789,733.789,318.5,733.5z"/>
        <path class="twig-st38" d="M287.5,734.5c4.245,2.321,7.665-0.567,13,0c0.333,0,0.667,0,1,0c0,2.667,0,5.333,0,8c-4.667,0-9.333,0-14,0
		C287.5,739.833,287.5,737.167,287.5,734.5z"/>
        <path class="twig-st37" d="M318.5,736.5c0.779-0.221,1.163-0.838,1-2c2.223,2.315,3.899-0.34,7,0c0,1,0,2,0,3
		c-4.358,1.833-5.712,0.454-8,4c0-0.667,0-1.333,0-2C318.5,738.5,318.5,737.5,318.5,736.5z"/>
        <path class="twig-st14" d="M496.5,735.5c2,0,4,0,6,0c-1.203,2.797-7.184,0.816-9,3c-3,0-6,0-9,0
		C487.27,736.27,494.383,738.383,496.5,735.5z"/>
        <path class="twig-st44" d="M502.5,735.5c1.667,0,3.333,0,5,0c-3.417,2.25-8.124,3.209-14,3C495.316,736.316,501.297,738.297,502.5,735.5
		z"/>
        <path class="twig-st56" d="M318.5,739.5c0,0.667,0,1.333,0,2c0,2.333,0,4.667,0,7c-3.528,1.472-7.397,2.603-13,2c0-0.333,0-0.667,0-1
		c0-2.667,0-5.333,0-8C309.673,741.441,311.763,739.176,318.5,739.5z"/>
        <path class="twig-st24" d="M287.5,742.5c4.667,0,9.333,0,14,0c0,1,0,2,0,3s0,2,0,3c-4.667,0-9.333,0-14,0
		C287.5,746.5,287.5,744.5,287.5,742.5z"/>
        <path class="twig-st47" d="M311.5,754.5c0-1,0-2,0-3c2.356-0.022,2.944,1.723,6,1c0,0.333,0,0.667,0,1
		C314.444,752.777,313.856,754.522,311.5,754.5z"/>
        <path class="twig-st42" d="M546.5,723.5c4.095,3.077,13.622,4.34,19,3c0.306,2.306-2.889,1.111-3,3c-6.106,1.488-14.874-0.458-17-4
		C545.338,724.338,545.721,723.721,546.5,723.5z"/>
        <path class="twig-st22" d="M599.5,122.5c9.588-9.081,22.354-20.308,39-19c-8.359,1.307-14.074,5.259-20,9c-1.503,1.498-4.211,1.789-5,4
		c-4.441,3.225-8.528,6.805-12,11c-0.694,0.783-5.58,2.226-6,0C596.177,125.177,598.823,124.823,599.5,122.5z"/>
        <path class="twig-st9" d="M590.5,130.5c3.604-2.063,5.396-5.937,9-8c-0.677,2.323-3.323,2.677-4,5c-3.276,1.724-4.724,5.276-8,7
		C587.794,132.461,590.206,132.539,590.5,130.5z"/>
        <path class="twig-st3" d="M638.5,103.5c1.039-2.294,7.141,0.474,8-2c21.161,5.173,35.191,17.476,45,34c-0.81-0.19-0.997-1.003-2-1
		c-10.939-16.389-40.387-35.988-65-20c-0.389-1.263-4.712,0.663-6-2C624.426,108.759,630.141,104.807,638.5,103.5z"/>
        <path class="twig-st12" d="M595.5,127.5c0.42,2.226,5.306,0.783,6,0c-4.356,5.644-9.128,10.872-13,17c-0.678-2.322-4.542-1.458-5-4
		c-0.178-3.511,3.378-3.289,4-6C590.776,132.776,592.224,129.224,595.5,127.5z"/>
        <path class="twig-st8" d="M613.5,116.5c0.789-2.211,3.497-2.502,5-4c1.288,2.663,5.611,0.737,6,2c-1.313,0.354-1.573,1.761-3,2
		C620.761,115.383,616.508,119.168,613.5,116.5z"/>
        <path class="twig-st25" d="M613.5,116.5c3.008,2.668,7.261-1.117,8,0c-27.421,24.912-40.241,64.426-57,100
		c-1.396-6.734-7.156,1.896-12,1c5.772-16.228,12.959-31.042,20-46c3.061-6.272,6.939-11.728,10-18c2.647-2.353,3.756-6.245,6-9
		c3.872-6.128,8.644-11.356,13-17C604.972,123.305,609.059,119.725,613.5,116.5z"/>
        <path class="twig-st56" d="M574.5,151.5c3.156-3.51,5.116-8.217,9-11c0.458,2.542,4.322,1.678,5,4c-2.244,2.755-3.353,6.647-6,9
		c-1.714-1.286-3.933-2.068-4-5C576.461,148.794,576.539,151.206,574.5,151.5z"/>
        <path class="twig-st57" d="M588.5,123.5c-3.486,2.631-3.047,6.028,2,7c-0.294,2.039-2.706,1.961-3,4c-0.622,2.711-4.178,2.489-4,6
		c-3.884,2.783-5.844,7.49-9,11c-3.156,4.511-6.051,9.282-9,14c-7.396,0.696-4.644-8.431-10-4
		C564.59,146.923,575.968,134.634,588.5,123.5z"/>
        <path class="twig-st53" d="M691.5,135.5c2.348,0.319,2.238,3.095,4,4c-2.687,3.263-3.592-3.675-6-4c0-0.333,0-0.667,0-1
		C690.503,134.497,690.69,135.31,691.5,135.5z"/>
        <path class="twig-st46" d="M564.5,167.5c1.859,1.601,4.039,6.878,8,4c-7.041,14.958-14.228,29.772-20,46c-3.609,9.057-6.863,18.47-10,28
		c-3.191,3.207-2.969-2.106-6-2c-0.551-2.217,1.91-1.424,2-3c-1.56-0.848-4.421,0.068,0-2c-5.11,1.003-1.046-6.741-6-4
		C541.511,210.511,552.268,188.268,564.5,167.5z"/>
        <path class="twig-st47" d="M555.5,161.5c5.356-4.431,2.604,4.696,10,4c-0.19,0.81-1.003,0.997-1,2c-12.232,20.768-22.989,43.011-32,67
		c-7.188,17.145-12.758,35.909-19,54c-5.879-3.526-12.605-9.569-9-17c-2.729-0.729-2.013,1.987-4,2
		C514.122,231.456,531.241,192.908,555.5,161.5z"/>
        <path class="twig-st37" d="M532.5,234.5c4.954-2.741,0.89,5.003,6,4c-4.421,2.068-1.56,1.152,0,2c-0.09,1.576-2.551,0.783-2,3
		c3.031-0.106,2.809,5.207,6,2c-5.834,16.166-11.015,32.985-16,50c-3.078-0.7-1.922-0.7-5,0c-1.745-2.039,0.745-1.961-1-4
		c-2.767,0.125-3.434,1.909-2-1c0.306-2.031-2.889,0.205-3,1c-1.086-0.247-0.679-1.988-2-2c0-0.333,0-0.667,0-1
		C519.742,270.409,525.312,251.645,532.5,234.5z"/>
        <path class="twig-st8" d="M564.5,216.5c-14.648,42.018-27.098,86.235-38,132c-9.099,7.568-7.144,15.348-18,19
		c5.013-24.987,11.867-48.133,18-72c4.985-17.015,10.166-33.834,16-50c3.137-9.53,6.391-18.943,10-28
		C557.344,218.396,563.104,209.766,564.5,216.5z"/>
        <path class="twig-st3" d="M526.5,348.5c-2.271,19.063-6.939,35.728-9,55c-1.357-0.31-0.83-2.504-1-4c-4.604,3.396-13.811,2.189-16,8
		c1.105-9.561,3.613-17.72,5-27c1.324-4.009,1.383-9.284,3-13C519.356,363.848,517.401,356.068,526.5,348.5z"/>
        <path class="twig-st37" d="M475.5,381.5c0.661-2.672,0.419-6.248,2-8c3.445-4.337,12.205-4.012,17-7c-1.478,4.189-1.4,9.933-3,14
		c-0.81,0.19-0.997,1.003-2,1c0-0.333,0-0.667,0-1c-2.309,0.616-6.032,1.983-4,4C482.555,383.112,479.191,382.142,475.5,381.5z"/>
        <path class="twig-st23" d="M491.5,380.5c0,1.333,0,2.667,0,4c0,0.333,0,0.667,0,1c-4.781,0.451-4.219,0.451-9,0
		c0.501,5.349-2.533,3.361-6,3c3.839,4.551,9.209,2.792,13,6c-2.279-0.279-3.759,0.241-4,2c1.794,0.127,2.109-1.224,4-1c0,1,0,2,0,3
		c-3.781-1.448-1.919,2.748-5,2c-0.282-1.615,0.945-1.722,1-3c-4.158,0.609-6.045-0.264-12-2c0.083-1.583-0.48-3.814,1-4
		c1.591,2.119,7.069,5.539,10,3c-4.165-0.502-5.835-3.498-10-4c-0.688-4.021,0.958-5.708,1-9c3.691,0.642,7.055,1.612,10,3
		c0.81,0.19,0.997,1.003,2,1c1.387-0.614,0.15-3.85,2-4C490.503,381.503,490.69,380.69,491.5,380.5z"/>
        <path class="twig-st17" d="M486.5,420.5c-0.346-8.096-8.347-9.261,1-5c0-2.333,0-4.667,0-7c0.394-3.607,1.294-6.706,2-10c0-1,0-2,0-3
		c0.333,0,0.667,0,1,0c-0.701-4.368,1.701-5.632,1-10c0-0.333,0-0.667,0-1c6.102-1.779,10.113-1.686,14-4
		c-1.387,9.28-3.895,17.439-5,27c0.996,5.663-2.996,6.337-2,12c-4.292,2.512-6.646-0.797-11-1
		C487.663,419.663,487.279,420.279,486.5,420.5z"/>
        <path class="twig-st51" d="M496.5,433.5c-0.319,2.348-1.58,3.754-1,7c0.438,3.438-0.396,5.604-1,8c-3.059-3.136-10.303-4.521-11,0
		c-0.769-3.769,1.22-4.78,1-8c0-1,0-2,0-3c1.357-0.31,0.83-2.504,1-4c3.606,0.394,6.706,1.294,10,2
		C495.337,434.337,495.721,433.721,496.5,433.5z"/>
        <path class="twig-st31" d="M506.5,551.5c18.65-60.017,37.088-120.245,88-148c-0.903,1.763-2.237,3.097-4,4
		c-17.454,8.212-27.563,23.77-36,41c-15.436,26.231-23.405,59.928-30,95c3.072,2.66,6.862,3.786,9,5c1.233,6.233-3.233,6.767-2,13
		c-2.209-0.125-0.425-4.242-1-6c-10.924,6.743-12.524,22.81-14,39c-1.172,0.161-0.844,1.823-1,3c-6.295-4.705-11.326-10.674-16-17
		c1.753-2.247,0.479-7.521,2-10c0.083-1.584-0.48-3.814,1-4c2.953-1.381,2.305-6.362,3-10
		C506.339,555.339,506.819,553.819,506.5,551.5z"/>
        <path class="twig-st4" d="M471.5,409.5c0,0.667,0,1.333,0,2c1.172-0.162,0.844-1.823,1-3c1.667,0,3.333,0,5,0
		c2.338,0.329,4.132,1.202,6,2c0-0.667,0-1.333,0-2c1.333,0,2.667,0,4,0c0,2.333,0,4.667,0,7c-9.347-4.261-1.346-3.096-1,5
		c0.535,3.868-1.785,4.882-1,9c-1.787-0.282-2.052,0.945-1,1c-2.291,0.258-9.136-3.506-13-5c-2.062,0.272-0.238,4.428-3,4
		C469.684,423.017,469.558,415.224,471.5,409.5z"/>
        <path class="twig-st12" d="M590.5,407.5c-11.196,13.47-21.252,28.082-29,45c0.877-3.51-2.594-1.04-3,0c-1.78-0.733-0.145-1.818,0-3
		c-3.081-0.748-1.219,3.447-5,2c-0.282-1.615,0.945-1.722,1-3C562.937,431.27,573.046,415.712,590.5,407.5z"/>
        <path class="twig-st22" d="M554.5,448.5c-0.055,1.278-1.282,1.385-1,3c3.781,1.447,1.919-2.748,5-2c-0.145,1.182-1.78,2.267,0,3
		c0.406-1.04,3.877-3.51,3,0c-13.165,28.168-22.473,60.194-28,96c-2.138-1.214-5.928-2.34-9-5
		C531.095,508.428,539.064,474.731,554.5,448.5z"/>
        <path class="twig-st12" d="M505.5,556.5c-0.695,3.638-0.047,8.619-3,10c-0.43-4.096,0.927-6.406,2-9
		C504.316,556.649,504.89,556.557,505.5,556.5z"/>
        <path class="twig-st6" d="M288.5,471.5c0.083-1.584-0.481-3.814,1-4c0.319,2.348,1.58,3.754,1,7c0,1.333,0,2.667,0,4
		c-2.784,0.45,0.784-5.45-2-5C288.5,472.833,288.5,472.167,288.5,471.5z"/>
        <path class="twig-st59" d="M463.5,594.5c0.424-2.09-0.686-2.648-1-4c0-0.333,0-0.667,0-1c2.747,1.253,2.591,5.409,3,9
		C463.65,598.35,464.887,595.113,463.5,594.5z"/>
        <path class="twig-st61" d="M462.5,590.5c-2.648,0.71-2.849-14.026-7-18c0.333,0,0.667,0,1,0c3.568,4.098,5.028,10.305,6,17
		C462.5,589.833,462.5,590.167,462.5,590.5z"/>
        <path class="twig-st6" d="M405.5,526.5c-14.181-17.152-34.494-28.173-58-36c12.576-0.576,23.026,0.974,33,3c-0.19,0.81-1.003,0.997-1,2
		c10.859,2.141,18.154,7.846,26,13C404.761,515.613,407.461,527.646,405.5,526.5z"/>
        <path class="twig-st49" d="M405.5,505.5c0,1,0,2,0,3c-7.846-5.154-15.141-10.859-26-13c-0.003-1.003,0.81-1.19,1-2
		C389.586,496.747,399.239,499.428,405.5,505.5z"/>
        <path class="twig-st45" d="M405.5,508.5c0-1,0-2,0-3c20.37,12.297,33.531,31.802,44,54c-3.595,0.253,0.873,10.927,4,8
		c1.02,1.313,0.98,3.687,2,5c-2.433,11.795,2.396,20.761,5,33c0,0.333,0,0.667,0,1c-6.506,11.048-10.103,19.068-15,31
		c-0.382-8.618-2.069-15.931-3-24c19.888-20.831,5.389-52.857-9-73C426.792,527.208,416.922,517.078,405.5,508.5z"/>
        <path class="twig-st38" d="M453.5,567.5c-3.127,2.927-7.595-7.747-4-8C451.251,561.749,451.877,565.123,453.5,567.5z"/>
        <path class="twig-st49" d="M433.5,540.5c14.389,20.143,28.888,52.169,9,73c-1.256-4.744-1.605-10.395-3-15
		C446.277,580.274,435.924,557.74,433.5,540.5z"/>
        <path class="twig-st38" d="M300.5,550.5c1.172-0.161,0.843-1.823,1-3c1,0,2,0,3,0c-0.826,2.826,1.409,2.591,1,5
		c-0.933-0.611-3.689-2.327-3,1c-0.333,0-0.667,0-1,0c0.163-1.162-0.221-1.779-1-2C300.5,551.167,300.5,550.833,300.5,550.5z"/>
        <path class="twig-st32" d="M497.5,577.5c0.782,4.449-1.332,6.002-1,10c-0.604,2.395-1.438,4.563-1,8c-3.11,0.223-1.689,4.977-2,8
		c-2.561,1.105-1.964,5.37-2,9c0,1.667,0,3.333,0,5c-2.169-0.169-0.453,3.547-1,5c0,0.667,0,1.333,0,2c-0.333,0-0.667,0-1,0
		c-0.839-1.16-1.319-2.681-1-5c-4.807,2.066-7.96,1.86-11,4c0-4.333,0-8.667,0-13c0-1,0-2,0-3c0.81,0.19,0.997,1.003,2,1
		c5.116-21.16,13.472-39.994,10-67C492.746,555.104,493.956,566.777,497.5,577.5z"/>
        <path class="twig-st13" d="M300.5,621.5c2.754,2.374,4.851-0.395,5,5c3.912-3.291,2.616,0.203,5,3c0.333,0,0.667,0,1,0
		c0,2.667,0,5.333,0,8c-1.918-0.655-9.059-4.812-10,0C300.509,634.564,300.605,629.554,300.5,621.5z"/>
        <path class="twig-st24" d="M455.5,572.5c4.151,3.974,4.352,18.71,7,18c0.314,1.352,1.424,1.91,1,4c-4.484,2.177-0.566,8.286-3,11
		C457.896,593.261,453.067,584.295,455.5,572.5z"/>
        <path class="twig-st9" d="M497.5,587.5c0.977,10.31-4.043,14.624-3,25c6.928,0.976,16.181,7.227,20,3c0.438,3.438-0.395,5.605-1,8
		c0,1.667,0,3.333,0,5c-1.172,0.161-0.844,1.823-1,3c-5.063-6.271-10.53-12.137-21-13c0-0.333,0-0.667,0-1c0-1.667,0-3.333,0-5
		c1.498-2.169,1.705-5.629,2-9c1.581-1.752,1.339-5.328,2-8c-0.438-3.438,0.396-5.605,1-8C496.833,587.5,497.167,587.5,497.5,587.5z
		"/>
        <path class="twig-st13" d="M300.5,612.5c5.102-2.395,6.722-2.06,7-9c0.973,0.027,0.776,1.225,1,2c-0.31,5.644,1.773,8.893,1,15
		c0.282,1.615-0.945,1.722-1,3c0.46-2.132-3.787-2.847-4-7c-2.729-0.729-2.013,1.987-4,2C300.5,616.5,300.5,614.5,300.5,612.5z"/>
        <path class="twig-st2" d="M513.5,628.5c-0.042,3.291-1.688,4.979-1,9c0.091,2.729-1.666,2.013,0,4c-0.881-15.31-11.211-16.211-21-22
		c-0.146-0.086,0.117-0.864,0-1c10.47,0.863,15.938,6.729,21,13C512.656,630.323,512.328,628.661,513.5,628.5z"/>
        <path class="twig-st23" d="M462.5,616.5c0.851-0.184,0.943,0.39,1,1c0,0.667,0,1.333,0,2c-5.35,1.983-6.998,7.669-10,12
		C453.544,623.544,460.603,622.603,462.5,616.5z"/>
        <path class="twig-st12" d="M527.5,612.5c-2.209,0.125-0.425,4.242-1,6c-3.962,2.038-7.507,4.493-13,5c0.605-2.395,1.438-4.563,1-8
		c0.195-4.515,2.515-2.235,1-7c1.086,0.247,0.679,1.988,2,2c2.995-0.658-0.956-2.138,0-4c4.474-0.526,8.856-1.144,10-5
		c0,0.333,0,0.667,0,1C527.5,605.833,527.5,609.167,527.5,612.5z"/>
        <path class="twig-st61" d="M464.5,624.5c0.586,2.272-4.727,5.828-2,4c0.333,0,0.667,0,1,0c-1.898,2.435-3.723,4.943-3,10
		c-1.898,3.932,3.246,9.396,8,10c0,0.333,0,0.667,0,1c-0.127,1.794,1.225,2.109,1,4C459.068,650.469,451.792,630.862,464.5,624.5z"
		/>
        <path class="twig-st13" d="M463.5,619.5c-7.231,8.23-11.039,21.338-3,32c3.575,4.742,5.898,5.402,6,10c0.199,8.979-6.088,21.234-7,30
		c-0.3,2.883,2.014,6.65,2,10c-0.011,2.611-2.97,4.826-3,7c-0.122,8.697,2.979,19.367,6,27c-0.161,1.172-1.823,0.844-3,1
		c-3.292-0.042-4.979-1.688-9-1c-2.414-8.252-4.26-17.074-7-25c0-1,0-2,0-3c2.295-2.038,0.362-8.305,1-12c1.357-0.31,0.83-2.504,1-4
		c2.288-13.917,10.394-20.665,9-34c-0.93-8.896-8.043-18.289-3-26C456.502,627.169,458.15,621.483,463.5,619.5z"/>
        <path class="twig-st20" d="M477.5,623.5c3.04-2.14,6.193-1.934,11-4c-0.319,2.319,0.161,3.84,1,5c0,1,0,2,0,3
		c-0.443,0.891-0.878,1.788-2,2c-0.319-2.319,0.161-3.839,1-5c-3.74,1.927-10.736,0.597-11,6c-0.891-0.443-1.788-0.878-2-2
		c0.443-1.453,0.878,0.102,2,0c0-1.333,0-2.667,0-4C477.5,624.167,477.5,623.833,477.5,623.5z"/>
        <path class="twig-st2" d="M485.5,653.5c9.113,2.089,25.064,1.007,24-10c2.81-2.743,1.901,6.716,2,10c0,2.333,0,4.667,0,7
		c-2.288,1.712-0.367,7.633-1,11c0,1.667,0,3.333,0,5c0,0.333,0,0.667,0,1c-4.251-0.353-7.538,5.561-10,1
		c-4.428,2.239-7.563,5.771-12,8c-1.132-3.202-2.033-6.633-2-11c0.424-2.09-0.686-2.648-1-4C485.5,665.5,485.5,659.5,485.5,653.5z"
		/>
        <path class="twig-st56" d="M497.5,649.5c6.275-0.746,3.848-5.727,8-6c6.347-10.871-3.869-21.086-15-21c0.547-1.453-1.169-5.169,1-5
		c0,0.333,0,0.667,0,1c0.117,0.136-0.146,0.914,0,1c9.789,5.789,20.119,6.69,21,22c-0.638,3.695,1.295,9.962-1,12
		c-0.099-3.284,0.81-12.743-2-10c1.064,11.007-14.887,12.089-24,10c0-0.333,0-0.667,0-1
		C488.365,650.365,495.666,652.666,497.5,649.5z"/>
        <path class="twig-st21" d="M267.5,640.5c-5.208-8.125-9.076-17.591-17-23c4.589,0.427,11.116,7.539,15,12c2.744,1.923,1.742,7.592,5,9
		c-0.248,1.086-1.988,0.678-2,2C268.167,640.5,267.833,640.5,267.5,640.5z"/>
        <path class="twig-st59" d="M470.5,621.5c0.367,3.034-3.258,2.076-5,3c-0.163,1.162,0.221,1.779,1,2c-0.733,0.934-1.818,1.515-3,2
		c-0.333,0-0.667,0-1,0c-2.727,1.828,2.586-1.728,2-4c0-0.333,0-0.667,0-1C466.278,622.611,467.042,620.708,470.5,621.5z"/>
        <path class="twig-st46" d="M503.5,641.5c2.877-5.609-0.798-10.449-3-14c4.863,1.057,6.285,10.035,4,15
		C503.649,642.684,503.557,642.11,503.5,641.5z"/>
        <path class="twig-st46" d="M490.5,624.5c4.238-0.238,7.921,0.079,9,3c-0.851-0.184-0.943,0.39-1,1c-2.492-0.841-5.357-1.309-9-1
		c0-1,0-2,0-3C489.833,624.5,490.167,624.5,490.5,624.5z"/>
        <path class="twig-st1" d="M478.5,632.5c-1.41-4.41,5.983-0.017,6-3c0.973,0.027,0.776,1.225,1,2c-1.296,2.903-1.296,7.097,0,10
		c0,0.667,0,1.333,0,2c-2.977,0.052-5.074-2.941-7-1c0-1,0-2,0-3C478.5,637.167,478.5,634.833,478.5,632.5z"/>
        <path class="twig-st37" d="M498.5,628.5c0.057-0.61,0.149-1.184,1-1c0.333,0,0.667,0,1,0c2.202,3.551,5.877,8.391,3,14
		c-2.041,1.292-1.818,4.848-6,4c0-0.333,0-0.667,0-1C503.619,642.317,503.657,631.658,498.5,628.5z"/>
        <path class="twig-st52" d="M512.5,637.5c1.172-0.161,0.844-1.823,1-3c1.86,2.47,3.664,0.104,3,6c2.236-0.431,0.405-4.929,1-7
		c1.675-2.88,0.796,5.109,1,7c3.356-4.242-0.203-10.663,6-13c2.831-0.164-0.831,6.164,2,6c0,1.667,0,3.333,0,5
		c-1.664,5.684-1.664,18.316,0,24c0,1.667,0,3.333,0,5c-3.613,0.947-1.395-3.938-2-6c-3.178,4.489-6.028,9.305-13,10
		c-0.547,1.453,1.169,5.169-1,5c0-1.667,0-3.333,0-5c2.288-1.712,0.367-7.633,1-11c0-2.333,0-4.667,0-7
		c2.295-2.038,0.362-8.305,1-12C510.834,639.513,512.591,640.229,512.5,637.5z"/>
        <path class="twig-st59" d="M468.5,648.5c-4.754-0.604-9.898-6.068-8-10c1.631,4.369,5.226,6.774,12,6c-4.136,2.354-1.815,0.896,1,3
		C470.637,648.907,468.042,644.396,468.5,648.5z"/>
        <path class="twig-st61" d="M311.5,638.5c0.333,0,0.667,0,1,0c0,3,0,6,0,9c-2.928,1.321-5.162-0.639-10,0c0,1.667,0,3.333,0,5
		c0,0.667,0,1.333,0,2c1.175,2.651-1.917,5.889,0,6c0,0.333,0,0.667,0,1c-0.89,0.443-1.789,0.878-2,2c-4.026-1.108-7.584,1.775-7-5
		c3.528,1.54,4.472-0.54,8,1c0-5,0-10,0-15c0-1,0-2,0-3c2.631,1.035,6.137,1.196,10,1C311.5,641.167,311.5,639.833,311.5,638.5z"/>
        <path class="twig-st30" d="M497.5,645.5c-1.008,4.139-9.426-2.086-11,3c0.184,0.851-0.39,0.943-1,1c0-1.333,0-2.667,0-4
		c1.172-0.161,0.844-1.823,1-3c2.34,2.428,6.965,4.112,11,2C497.5,644.833,497.5,645.167,497.5,645.5z"/>
        <path class="twig-st32" d="M478.5,651.5c2.737,2.111,1.083,4.813,4,5c2.427-0.573-0.47-6.469,3-6c0,0.667,0,1.333,0,2
		c0,0.333,0,0.667,0,1c-2.907,0.76,0.907,8.24-2,9c0.42-6.094-3.292-0.555-2,3c-1.342-0.202-1.862-4.153-2,0
		c-2.209-0.125-0.425-4.242-1-6c0-0.333,0-0.667,0-1C478.5,656.167,478.5,653.833,478.5,651.5z"/>
        <path class="twig-st51" d="M468.5,649.5c0-0.333,0-0.667,0-1c2.322,0.802,5.678,3.203,8,1c0,0.333,0,0.667,0,1
		c-0.726,3.059,1.726,2.941,1,6C474.645,654.022,470.022,653.311,468.5,649.5z"/>
        <path class="twig-st59" d="M468.5,649.5c1.522,3.811,6.145,4.522,9,7c-0.163,1.162,0.221,1.779,1,2c0,0.333,0,0.667,0,1
		c-1.787,4.724-2.238,15.679-2,19c-0.903,2.729-2.237-3.042-4,0c5.453,3.382,0.266,16.213,4,24c-2.763-0.256-1.535,7.228-2,14
		c-0.333,0-0.667,0-1,0c-2.247-4.652-0.38-11.063,0-14c-0.642-4.024,1.3-10.634-1-13c-0.468-12.532-1.867-24.133-3-36
		C469.725,651.609,468.373,651.294,468.5,649.5z"/>
        <path class="twig-st51" d="M474.5,716.5c0.465-6.772-0.763-14.256,2-14c-3.734-7.787,1.453-20.618-4-24c1.763-3.042,3.097,2.729,4,0
		c-0.238-3.321,0.213-14.276,2-19c0.575,1.758-1.209,5.875,1,6c0.202,5.131-0.888,11.555,2,14c0,3.333,0,6.667,0,10
		c-1.657,1.4-1.657,9.6,0,11c0,4.667,0,9.333,0,14c0.19,0.81,1.003,0.997,1,2c0,3.333,0,6.667,0,10c-0.734,3.56-1.383,6.05,1,10
		c-0.163,1.162,0.221,1.779,1,2c0.282,1.615-0.945,1.722-1,3c-0.667,0-1.333,0-2,0c-0.31-1.357-2.504-0.829-4-1
		c-0.125-2.209-4.242-0.425-6-1c0-0.333,0-0.667,0-1c3.558-0.3,2.08-9.19,2-10C475.795,726.462,473.862,720.195,474.5,716.5z"/>
        <path class="twig-st45" d="M295.5,696.5c0.81-0.19,0.997-1.003,2-1c1.317-3.1-2.964-5.547,0-7c0.553,1.78,0.514,4.153,2,5
		c0,1.667,0,3.333,0,5c0,0.333,0,0.667,0,1c-3.236,1.235-0.764-3.235-4-2C295.5,697.167,295.5,696.833,295.5,696.5z"/>
        <path class="twig-st20" d="M318.5,657.5c1.674,1.659,0.796,5.871,1,9c-0.973-0.027-0.776-1.225-1-2c-3.21-0.877-2.073,2.594-4,3
		c0-3,0-6,0-9C316.293,658.627,316.609,657.275,318.5,657.5z"/>
        <path class="twig-st20" d="M313.5,681.5c-0.153,3.181-2.267,4.399-2,8c0,0.333,0,0.667,0,1c-1.498,2.169-1.705,5.629-2,9
		c-0.839,1.161-1.319,2.681-1,5c-0.89,0.776-2.258,1.075-4,1c0-3.333,0-6.667,0-10c0-3,0-6,0-9
		C310.83,688.163,311.686,684.353,313.5,681.5z"/>
        <path class="twig-st56" d="M485.5,671.5c0.314,1.352,1.424,1.91,1,4c-0.934,0.732-1.515,1.818-2,3c-2.512,0.483,2.411-4.584-1-5
		C483.943,672.609,484.378,671.712,485.5,671.5z"/>
        <path class="twig-st1" d="M315.5,693.5c-1.975,0.691-2.666,2.667-3,5c-3.647-0.683,0.213-3.981-1-8c0-0.333,0-0.667,0-1
		c1.333,0,2.667,0,4,0c0.22-3.22-1.769-4.231-1-8c4.526,1.525,2.163-3.837,4-5c0.81,0.19,0.997,1.003,2,1c0,2.333,0,4.667,0,7
		C319.958,688.624,318.466,691.799,315.5,693.5z"/>
        <path class="twig-st11" d="M311.5,690.5c1.213,4.019-2.647,7.317,1,8c0.334-2.333,1.025-4.309,3-5c0,0.667,0,1.333,0,2
		c-1.778,1.889-3.295,4.038-3,8c-0.333,0-0.667,0-1,0c-0.228-1.772,1.008-5.008-2-4C309.795,696.129,310.002,692.669,311.5,690.5z"
		/>
        <path class="twig-st30" d="M526.5,679.5c0.627,3.039-1.28,8.613,1,10c0,5,0,10,0,15c-2.236-0.431-0.405-4.929-1-7
		c-10.42,2.589-5.764,10.927-13,11c-2.468,4.305-3.813,16.301-3,27c-0.333,0-0.667,0-1,0c0-6.333,0-12.667,0-19c0-1.667,0-3.333,0-5
		c2.313-3.687,0.349-11.651,1-17c0-1.333,0-2.667,0-4c5.631-3.036,13.333-4,15-11C525.833,679.5,526.167,679.5,526.5,679.5z"/>
        <path class="twig-st58" d="M439.5,700.5c0-2.667,0-5.333,0-8c0.333,0,0.667,0,1,0c0.207,7.126,3.793,10.874,4,18
		c1.221,6.123,3.516,19.81,8,26c-0.086,1.419-0.165,2.832,1,3c0.083,1.583-0.48,3.814,1,4c0,0.667,0,1.333,0,2
		c-4.428-1.906-13.237,0.571-15-4c0-0.333,0-0.667,0-1c0-0.667,0-1.333,0-2c0-4.333,0-8.667,0-13c0-0.667,0-1.333,0-2c0-1,0-2,0-3
		C439.5,713.833,439.5,707.167,439.5,700.5z"/>
        <path class="twig-st49" d="M445.5,710.5c2.74,7.926,4.586,16.748,7,25c0,0.333,0,0.667,0,1c-4.484-6.19-6.779-19.877-8-26
		C444.833,710.5,445.167,710.5,445.5,710.5z"/>
        <path class="twig-st38" d="M299.5,698.5c1.357,0.31,0.83,2.504,1,4c0,0.333,0,0.667,0,1c-2.065,0.602-3.787,1.547-3,5
		c-2.729-0.729-2.013,1.987-4,2c0.19-0.81,1.003-0.997,1-2c-8.938,3.746-1.312,16.272,6,16c0,0.333,0,0.667,0,1c0,0.667,0,1.333,0,2
		c-10.005-1.437-17.91-15.305-7-21c3.42-1.827,5.42-6.48,2-8c0-0.333,0-0.667,0-1c3.236-1.235,0.764,3.235,4,2
		C299.5,699.167,299.5,698.833,299.5,698.5z"/>
        <path class="twig-st9" d="M327.5,723.5c-1.987-1.666-1.271,0.091-4,0c2.38-8.408-1.378-18.23-11-20c-0.295-3.962,1.222-6.111,3-8
		c0.15,2.483-0.517,4.15-2,5c5.619,4.237,12.15,1.393,13,10c1.615,0.282,1.722-0.945,3-1
		C329.23,714.563,326.281,716.947,327.5,723.5z"/>
        <path class="twig-st2" d="M307.5,723.5c1.383-0.541,8.745,0.513,12-1c-0.083,1.583,0.481,3.814-1,4
		C318.506,721.827,309.152,726.515,307.5,723.5z"/>
        <path class="twig-st52" d="M311.5,708.5c-0.943-1.85,5.723-0.613,2-2c4.73-1.136,11.175,5.668,8,13c-2.467,1.113-9.255,3.164-15,1
		c0.553-1.78,0.514-4.153,2-5C313.685,728.766,328.015,706.364,311.5,708.5z"/>
        <path class="twig-st30" d="M483.5,700.5c2.255,0.744,0.391,5.609,1,8c0,1.667,0,3.333,0,5c-0.409,2.409,1.826,2.174,1,5
		c2.077-0.257,0.273-4.394,2-5c1.835,2.915,3.445,1.306,2-2c0.81,0.19,0.997,1.003,2,1c0.093,5.24,1.664,9.003,1,15
		c-3.049-0.049-5.092,0.908-6,3c-0.973-0.027-0.776-1.225-1-2c0.55-8.216-2.954-12.379-2-21
		C483.5,705.167,483.5,702.833,483.5,700.5z"/>
        <path class="twig-st50" d="M482.5,707.5c0.333,0,0.667,0,1,0c-0.954,8.621,2.55,12.784,2,21c-2.169-0.169-0.453,3.547-1,5
		c-2.236-0.431-0.405-4.929-1-7c-0.627-3.039,1.28-8.613-1-10c0.003-1.003-0.81-1.19-1-2
		C483.736,714.069,481.905,709.571,482.5,707.5z"/>
        <path class="twig-st23" d="M484.5,713.5c4.121,0.788,1.879-4.788,6-4c-0.163,1.162,0.221,1.779,1,2c0,0.333,0,0.667,0,1
		c-1.003,0.003-1.19-0.81-2-1c1.445,3.306-0.165,4.915-2,2c-1.727,0.606,0.077,4.743-2,5
		C486.326,715.674,484.091,715.909,484.5,713.5z"/>
        <path class="twig-st30" d="M293.5,710.5c-2.75,5.252,1.102,9.408,6,10c-0.127,1.794,1.224,2.109,1,4c-7.312,0.272-14.938-12.254-6-16
		C294.503,709.503,293.69,709.69,293.5,710.5z"/>
        <path class="twig-st58" d="M541.5,723.5c3.198-5.469,6.886-10.447,9-17c2.214,5.239-4.229,10.42-4,17c-0.779,0.221-1.162,0.838-1,2
		c-1.394,3.939-2.816,7.851-4,12c0,0.667,0,1.333,0,2c-1.342,0.658-1.862,2.138-2,4c-3.822-1.41-7.281,2.612-9,0
		c1.342-0.658,1.862-2.138,2-4c0.973-0.027,0.775-1.225,1-2c1.851-2.816,4.217-5.116,5-9c0.934-0.733,1.515-1.818,2-3
		C541.473,725.473,541.275,724.275,541.5,723.5z"/>
        <path class="twig-st17" d="M300.5,724.5c0.224-1.891-1.127-2.206-1-4c1.313-0.354,1.573-1.761,3-2c1.54,0.056-0.321,5.262,2,7
		c-0.903,2.729-2.237-3.042-4,0C300.5,725.167,300.5,724.833,300.5,724.5z"/>
        <path class="twig-st40" d="M421.5,733.5c4.671-0.067-1.171-2.286-1-4c6.467-1.866,11.279-5.388,19-6c0,0.667,0,1.333,0,2
		c-4.311,0.356-7.267,2.066-9,5c-0.146,5.813,5.188,6.145,9,8c0,0.667,0,1.333,0,2C433.253,738.414,425.53,737.803,421.5,733.5z"/>
        <path class="twig-st18" d="M530.5,724.5c0.913,3.087,4.68,3.32,8,4c-0.783,3.884-3.149,6.184-5,9c-10.453,2.214-22.153,3.18-33,5
		c-0.333,0-0.667,0-1,0c-12.004-0.663-26.662,1.329-37-1c6.333,0,12.667,0,19,0c0.667,0,1.333,0,2,0c0.333,0,0.667,0,1,0
		s0.667,0,1,0c14.557-0.11,28.654-0.68,39-5c2,0,4,0,6,0c0.693-0.807,1.557-2.739,0-3c-0.575-1.758,1.209-5.875-1-6
		c0-1.333,0-2.667,0-4C530.351,723.316,530.443,723.89,530.5,724.5z"/>
        <path class="twig-st62" d="M516.5,736.5c1.163,0.162,1.779-0.221,2-1c0.333,0,0.667,0,1,0c-0.169,2.169,3.547,0.453,5,1
		c-10.346,4.32-24.443,4.89-39,5C495.229,739.229,509.069,741.069,516.5,736.5z"/>
        <path class="twig-st42" d="M541.5,737.5c5.196-0.493,13.137-3.5,16-3c-0.169,2.169,3.547,0.453,5,1c-5.827,2.507-13.164,3.503-21,4
		C541.5,738.833,541.5,738.167,541.5,737.5z"/>
        <path class="twig-st4" d="M301.5,734.5c-0.854-3.188,0.871-3.796,2-5c2.27,1.063,0.381,6.286,1,9c0.086,1.419,0.165,2.832-1,3
		c-1.357,0.31-0.83,2.504-1,4c-0.333,0-0.667,0-1,0c0-1,0-2,0-3C301.5,739.833,301.5,737.167,301.5,734.5z"/>
        <path class="twig-st46" d="M326.5,732.5c0,0.667,0,1.333,0,2c-3.101-0.34-4.777,2.315-7,0c0.163,1.162-0.221,1.779-1,2
		c0-0.667,0-1.333,0-2C320.694,733.36,322.586,731.919,326.5,732.5z"/>
        <path class="twig-st58" d="M279.5,751.5c0.954-8.621-2.55-12.784-2-21c3.541,7.792,6.405,16.261,9,25c0.482,3.185,3.148,4.185,3,8
		c0.19,0.81,1.003,0.997,1,2c-0.163,1.162,0.221,1.779,1,2c0,0.333,0,0.667,0,1s0,0.667,0,1c-3.395-0.271-8.107,0.774-10-1
		c0-0.333,0-0.667,0-1s0-0.667,0-1c0.769-3.769-1.22-4.78-1-8C279.905,756.429,281.736,751.931,279.5,751.5z"/>
        <path class="twig-st26" d="M524.5,735.5c2.062-0.605,6.947,1.613,6-2c1.557,0.261,0.693,2.193,0,3c-2,0-4,0-6,0
		c-1.453-0.547-5.169,1.169-5-1C521.167,735.5,522.833,735.5,524.5,735.5z"/>
        <path class="twig-st5" d="M452.5,736.5c0-0.333,0-0.667,0-1c4.021-0.688,5.708,0.958,9,1c2.483,1.517,6.069,1.931,10,2
		c0,0.333,0,0.667,0,1C463.598,740.068,458.226,738.107,452.5,736.5z"/>
        <path class="twig-st55" d="M484.5,735.5c3,0,6,0,9,0c1,0,2,0,3,0c-2.117,2.883-9.23,0.77-12,3c-0.779-0.221-1.163-0.838-1-2
		C483.316,735.649,483.89,735.557,484.5,735.5z"/>
        <path class="twig-st5" d="M507.5,735.5c0.667,0,1.333,0,2,0c0.333,0,0.667,0,1,0c2.667,0,5.333,0,8,0c-0.221,0.779-0.837,1.162-2,1
		c-10.428,1.906-22.768,1.899-32,5c-0.333,0-0.667,0-1,0c0.055-1.278,1.282-1.385,1-3c3,0,6,0,9,0
		C499.376,738.709,504.083,737.75,507.5,735.5z"/>
        <path class="twig-st36" d="M516.5,736.5c-7.431,4.569-21.271,2.729-31,5c-0.333,0-0.667,0-1,0
		C493.732,738.399,506.072,738.406,516.5,736.5z"/>
        <path class="twig-st40" d="M454.5,742.5c-0.659-3.783,7.006-1.876,8-1c10.338,2.329,24.996,0.337,37,1
		C486.206,744.788,468.081,743.257,454.5,742.5z"/>
        <path class="twig-st58" d="M343.5,755.5c3.413-4.92,5.005-11.662,7-18c1.994,4.357-2.249,11.063-2,17c-1.9,2.434-0.683,7.983-2,11
		c-3.059-0.726-2.941,1.726-6,1c0-1,0-2,0-3c0.851,0.184,0.943-0.39,1-1c0.429-1.904,2.154-2.513,2-5c0-0.333,0-0.667,0-1
		S343.5,755.833,343.5,755.5z"/>
        <path class="twig-st45" d="M318.5,748.5c0,1.667,0,3.333,0,5c-0.333,0-0.667,0-1,0c0-0.333,0-0.667,0-1c-3.056,0.723-3.644-1.022-6-1
		c0,1,0,2,0,3c-0.973,0.027-0.776,1.225-1,2c-3.726-0.08-3.228-1.499-5,1c0-2.333,0-4.667,0-7
		C311.103,751.103,314.972,749.972,318.5,748.5z"/>
        <path class="twig-st58" d="M262.5,756.5c-0.445-2.555-1.402-4.598-3-6c2.142-2.398,3.112,4.831,6,5c-0.184,0.851,0.39,0.943,1,1
		c0.443,0.891,0.878,1.788,2,2c0.283,1.173,4.405,4.155,0,4c-3.21,0.877-2.073-2.594-4-3
		C264.554,757.779,263.73,756.937,262.5,756.5z"/>
        <path class="twig-st0" d="M632.5,101.5c1.725-1.658,10.275-1.658,12,0C640.5,101.5,636.5,101.5,632.5,101.5z"/>
        <path class="twig-st16" d="M638.5,103.5c-16.646-1.308-29.412,9.919-39,19c-3.604,2.063-5.396,5.937-9,8c-5.047-0.972-5.486-4.369-2-7
		c11.707-10.293,24.022-19.978,44-22c4,0,8,0,12,0c0.667,0,1.333,0,2,0C645.641,103.974,639.539,101.206,638.5,103.5z"/>
        <path class="twig-st52" d="M565.5,165.5c2.949-4.718,5.844-9.489,9-14c2.039-0.294,1.961-2.706,4-3c0.067,2.932,2.286,3.714,4,5
		c-3.061,6.272-6.939,11.728-10,18c-3.961,2.878-6.141-2.399-8-4C564.497,166.497,565.31,166.31,565.5,165.5z"/>
        <path class="twig-st30" d="M494.5,366.5c4.854-27.147,11.568-52.432,19-77c1.321,0.012,0.914,1.753,2,2c0.111-0.795,3.306-3.031,3-1
		c-1.434,2.909-0.767,1.125,2,1c1.745,2.039-0.745,1.961,1,4c3.078-0.7,1.922-0.7,5,0c-6.133,23.867-12.987,47.013-18,72
		c-1.617,3.716-1.676,8.991-3,13c-3.887,2.314-7.898,2.221-14,4c0-1.333,0-2.667,0-4C493.1,376.433,493.022,370.689,494.5,366.5z"/>
        <path class="twig-st38" d="M477.5,373.5c5.104-35.896,13.676-68.325,23-100c1.987-0.013,1.271-2.729,4-2c-3.605,7.431,3.121,13.474,9,17
		c0,0.333,0,0.667,0,1c-7.432,24.568-14.146,49.853-19,77C489.705,369.488,480.945,369.163,477.5,373.5z"/>
        <path class="twig-st30" d="M472.5,401.5c-0.723-3.056,1.022-3.644,1-6c5.955,1.736,7.842,2.609,12,2c-0.055,1.278-1.282,1.385-1,3
		c3.081,0.748,1.219-3.448,5-2c-0.706,3.294-1.606,6.393-2,10c-1.333,0-2.667,0-4,0C481.601,404.399,474.676,405.324,472.5,401.5z"
		/>
        <path class="twig-st30" d="M471.5,409.5c0.595-2.072-1.236-6.569,1-7c-0.363,4.03,5.784,1.549,5,6c-1.667,0-3.333,0-5,0
		c-0.156,1.177,0.172,2.838-1,3C471.5,410.833,471.5,410.167,471.5,409.5z"/>
        <path class="twig-st59" d="M498.5,419.5c-0.135,5.199-1.865,8.801-2,14c-0.779,0.221-1.163,0.837-1,2c-3.294-0.706-6.394-1.606-10-2
		c-0.17,1.496,0.357,3.69-1,4c-0.769-3.769,1.22-4.78,1-8c-0.785-4.118,1.535-5.132,1-9c0.779-0.221,1.163-0.837,1-2
		C491.854,418.703,494.208,422.012,498.5,419.5z"/>
        <path class="twig-st50" d="M517.5,403.5c-2.837,11.497-2.878,25.789-6,37c-5.54-3.804-11.822,2.261-16,0c-0.58-3.246,0.681-4.652,1-7
		c0.135-5.199,1.865-8.801,2-14c-0.996-5.663,2.996-6.337,2-12c2.189-5.811,11.396-4.604,16-8
		C516.67,400.996,516.143,403.19,517.5,403.5z"/>
        <path class="twig-st61" d="M467.5,436.5c-0.802-3.469,1.489-3.844,1-7c2.762,0.428,0.938-3.728,3-4c3.864,1.494,10.709,5.258,13,5
		c-1.052-0.055-0.787-1.282,1-1c0.22,3.22-1.769,4.231-1,8c0,1,0,2,0,3c-0.973,0.027-0.776,1.224-1,2
		C476.837,440.364,472.764,437.902,467.5,436.5z"/>
        <path class="twig-st59" d="M483.5,448.5c0.772,4.772-1.563,6.437-1,11c-0.973,0.027-0.776,1.224-1,2c-3.703-1.297-8.328-1.672-11-4
		c-5.029-1.029-2.163,5.837-6,6c0.789-9.211,2.295-17.705,3-27c5.264,1.402,9.337,3.864,16,6c0.224-0.776,0.027-1.973,1-2
		C484.72,443.72,482.731,444.731,483.5,448.5z"/>
        <path class="twig-st50" d="M511.5,441.5c-0.286,5.714-0.466,11.534-2,16c-0.373-6.04,0.282-11.051,1-16
		C510.833,441.5,511.167,441.5,511.5,441.5z"/>
        <path class="twig-st27" d="M287.5,471.5c0.705-6.705-1.028-10.972-1-17c1.737,3.596,2.923,7.743,3,13c-1.481,0.186-0.917,2.416-1,4
		C288.167,471.5,287.833,471.5,287.5,471.5z"/>
        <path class="twig-st32" d="M508.5,470.5c0-3.667,0-7.333,0-11c-3.815,6.223-15.017,0.7-16,6c-0.22-3.22,1.769-4.231,1-8
		c-0.535-3.868,1.785-4.882,1-9c0.604-2.396,1.438-4.563,1-8c4.178,2.261,10.46-3.804,16,0c0,0.333,0,0.667,0,1
		c-0.333,0-0.667,0-1,0c-0.718,4.949-1.373,9.96-1,16C508.858,461.524,510.8,468.134,508.5,470.5z"/>
        <path class="twig-st20" d="M492.5,465.5c0.983-5.3,12.185,0.223,16-6c0,3.667,0,7.333,0,11c-1.647,18.353-2.245,37.755-4,56
		c-2.3,2.366-0.358,8.976-1,13c0,2.667,0,5.333,0,8c-1.478,7.189-1.808,15.525-3,23c-3.73-0.396-0.42,6.246-3,7
		c-3.544-10.723-4.754-22.396-8-36c0-11.333,0-22.667,0-34c2.28-1.387,0.373-6.961,1-10
		C489.944,485.611,491.928,476.261,492.5,465.5z"/>
        <path class="twig-st48" d="M288.5,473.5c0,3,0,6,0,9c-2.289-1.712-0.367-7.633-1-11c0.333,0,0.667,0,1,0
		C288.5,472.167,288.5,472.833,288.5,473.5z"/>
        <path class="twig-st51" d="M462.5,481.5c1.537-5.13,1.238-12.095,2-18c3.837-0.163,0.971-7.029,6-6c2.672,2.328,7.297,2.703,11,4
		c0.224-0.776,0.027-1.973,1-2c0.719,5.719-1.066,8.934-1,14c-0.973,0.027-0.776,1.224-1,2c-1.824-1.509-5.605-1.062-7-3
		c-2.209,0.125-0.425,4.242-1,6c-1.667-1.333-6.364,0.364-6-3C462.565,474.899,466.754,482.421,462.5,481.5z"/>
        <path class="twig-st28" d="M289.5,512.5c-0.132-10.201-1.646-19.021-1-30c0-3,0-6,0-9c2.784-0.45-0.784,5.45,2,5
		c0.349,7.984,1.346,15.32,3,22c-0.673,5.006,0.926,7.74,1,12c1.471,5.187-2.217,7.347-1,7
		C290.017,523.239,291.362,513.695,289.5,512.5z"/>
        <path class="twig-st6" d="M294.5,492.5c1.61,3.39,2.049,7.95,2,13c0.489,3.156-1.802,3.531-1,7c-0.333,0-0.667,0-1,0
		c-0.074-4.26-1.673-6.994-1-12C292.792,496.792,295.208,496.208,294.5,492.5z"/>
        <path class="twig-st15" d="M295.5,514.5c0.281,3.386,1.591,5.742,1,10c-1.827,1.506-2.353,4.314-4,6c-2.149-1.851-0.642-7.357-3-9
		c0-3,0-6,0-9c1.862,1.195,0.517,10.739,4,7c-1.217,0.347,2.471-1.813,1-7c0.333,0,0.667,0,1,0
		C295.5,513.167,295.5,513.833,295.5,514.5z"/>
        <path class="twig-st6" d="M289.5,527.5c0-2,0-4,0-6c2.358,1.643,0.851,7.149,3,9c1.647-1.686,2.173-4.494,4-6
		c1.378,1.289,0.99,4.344,1,7c-2.507,2.493-1.584,8.415-6,9C291.549,535.45,291.11,530.89,289.5,527.5z"/>
        <path class="twig-st59" d="M459.5,529.5c0-3.667,0-7.333,0-11C461.157,519.9,461.157,528.1,459.5,529.5z"/>
        <path class="twig-st58" d="M297.5,531.5c4.563,1.23-0.093-6.76,3-7c0,1,0,2,0,3c1.188,5.521-3.188,5.479-2,11
		c-4.182,3.151,1.253,15.919-7,15c-0.633-3.367,1.289-9.288-1-11c-0.575-1.758,1.208-5.875-1-6c0-3,0-6,0-9
		c1.61,3.39,2.049,7.95,2,13C295.916,539.915,294.993,533.993,297.5,531.5z"/>
        <path class="twig-st50" d="M503.5,539.5c0.642-4.024-1.3-10.634,1-13c0,4.333,0,8.667,0,13C504.167,539.5,503.833,539.5,503.5,539.5z"/>
        <path class="twig-st10" d="M289.5,536.5c2.208,0.125,0.425,4.242,1,6c0,4.333,0,8.667,0,13C288.183,551.15,290.154,542.513,289.5,536.5z
		"/>
        <path class="twig-st45" d="M290.5,542.5c2.289,1.712,0.367,7.633,1,11c0,4,0,8,0,12c-0.333,0-0.667,0-1,0c0-3.333,0-6.667,0-10
		C290.5,551.167,290.5,546.833,290.5,542.5z"/>
        <path class="twig-st24" d="M301.5,553.5c0.333,0,0.667,0,1,0c-0.689-3.327,2.067-1.611,3-1c-0.58,3.246,0.681,4.652,1,7
		c-1.651,0.016-0.56,2.773-2,3c-0.667,0-1.333,0-2,0C300.826,560.841,301.704,556.629,301.5,553.5z"/>
        <path class="twig-st53" d="M504.5,539.5c0,4.667,0,9.333,0,14c1.086-0.247,0.679-1.988,2-2c0.319,2.319-0.161,3.839-1,5
		c-0.61,0.057-1.184,0.149-1,1c-2.28-1.387-0.373-6.961-1-10c0-2.667,0-5.333,0-8C503.833,539.5,504.167,539.5,504.5,539.5z"/>
        <path class="twig-st49" d="M291.5,565.5c0-4,0-8,0-12c8.253,0.919,2.818-11.849,7-15c2.705,1.962-0.61,9.943,2,12c0,0.333,0,0.667,0,1
		c0,1.667,0,3.333,0,5c-1.615,0.282-1.722-0.945-3-1c-0.173,8.367,1.391,12.325-6,13C291.5,567.5,291.5,566.5,291.5,565.5z"/>
        <path class="twig-st8" d="M500.5,570.5c1.192-7.475,1.522-15.811,3-23c0.627,3.039-1.28,8.613,1,10c-1.073,2.594-2.43,4.904-2,9
		c-1.48,0.186-0.917,2.416-1,4C501.167,570.5,500.833,570.5,500.5,570.5z"/>
        <path class="twig-st35" d="M291.5,568.5c0,1.667,0,3.333,0,5c0,0.667,0,1.333,0,2c-0.333,0-0.667,0-1,0c0-3.333,0-6.667,0-10
		c0.333,0,0.667,0,1,0C291.5,566.5,291.5,567.5,291.5,568.5z"/>
        <path class="twig-st13" d="M307.5,566.5c-0.802,3.469,1.489,3.844,1,7c-1.449,1.218-1.34,3.994-4,4c-2.28-1.387-0.373-6.961-1-10
		C305.293,567.627,305.609,566.275,307.5,566.5z"/>
        <path class="twig-st52" d="M498.5,580.5c1.521-2.479,0.247-7.753,2-10c0.333,0,0.667,0,1,0c-1.521,2.479-0.247,7.753-2,10
		C499.167,580.5,498.833,580.5,498.5,580.5z"/>
        <path class="twig-st50" d="M498.5,580.5c0.58,3.246-0.681,4.652-1,7c-0.333,0-0.667,0-1,0c-0.332-3.998,1.782-5.551,1-10
		c2.58-0.754-0.73-7.396,3-7C498.747,572.747,500.021,578.021,498.5,580.5z"/>
        <path class="twig-st4" d="M308.5,573.5c1.286,6.714,1.818,14.182,3,21c-0.738,1.595-4.895-0.229-4,3c-2.441-4.559-0.796-13.204-3-18
		c0-0.667,0-1.333,0-2C307.16,577.494,307.051,574.718,308.5,573.5z"/>
        <path class="twig-st23" d="M463.5,594.5c1.387,0.613,0.15,3.85,2,4c0.437,5.23,2.563,8.77,3,14c-2.6,0.4-3.016,2.984-6,3
		c-0.908-2.759-0.311-7.022-2-9c0-0.333,0-0.667,0-1C462.934,602.786,459.016,596.677,463.5,594.5z"/>
        <path class="twig-st10" d="M291.5,586.5c0,4,0,8,0,12c-2.295-2.038-0.362-8.305-1-12C290.833,586.5,291.167,586.5,291.5,586.5z"/>
        <path class="twig-st58" d="M439.5,598.5c-6.918-28.415-17.733-52.933-34-72c1.961,1.146-0.739-10.887,0-18
		c11.422,8.578,21.292,18.708,28,32C435.924,557.74,446.277,580.274,439.5,598.5z"/>
        <path class="twig-st22" d="M527.5,601.5c-1.144,3.856-5.526,4.474-10,5c-0.667,0-1.333,0-2,0c0.074-4.26,1.673-6.994,1-12
		c1.476-16.19,3.076-32.257,14-39c0.575,1.758-1.209,5.875,1,6c-1.717,9.616-2.668,19.998-3,31
		C526.23,593.563,528.119,598.786,527.5,601.5z"/>
        <path class="twig-st61" d="M311.5,594.5c-0.708,3.708,1.708,4.292,1,8c-1.336,0.997-1.964,2.703-4,3c-0.224-0.775-0.027-1.973-1-2
		c0-2,0-4,0-6C306.605,594.271,310.762,596.095,311.5,594.5z"/>
        <path class="twig-st13" d="M291.5,585.5c1.664,5.684,1.664,18.316,0,24c0-3.667,0-7.333,0-11c0-4,0-8,0-12
		C291.5,586.167,291.5,585.833,291.5,585.5z"/>
        <path class="twig-st0" d="M527.5,602.5c0-0.333,0-0.667,0-1c0.619-2.714-1.27-7.937,1-9C527.873,595.539,529.78,601.113,527.5,602.5z"/>
        <path class="twig-st3" d="M493.5,603.5c0.311-3.023-1.11-7.777,2-8C494.839,598.172,495.081,601.748,493.5,603.5z"/>
        <path class="twig-st50" d="M493.5,603.5c-0.295,3.371-0.502,6.831-2,9C491.536,608.87,490.939,604.605,493.5,603.5z"/>
        <path class="twig-st59" d="M312.5,602.5c1.431,4.235,0.398,10.936,2,15c-1.089,3.911-2.622,7.378-3,12c-0.333,0-0.667,0-1,0
		c-0.619-2.714,1.27-7.937-1-9c0.773-6.107-1.31-9.356-1-15C310.536,605.203,311.164,603.497,312.5,602.5z"/>
        <path class="twig-st7" d="M526.5,618.5c0.575-1.758-1.209-5.875,1-6c0,5.333,0,10.667,0,16c-0.333,0-0.667,0-1,0
		C526.5,625.167,526.5,621.833,526.5,618.5z"/>
        <path class="twig-st43" d="M469.5,618.5c-0.083-1.584,0.48-3.814-1-4c0-0.667,0-1.333,0-2c-0.437-5.23-2.563-8.77-3-14
		c-0.409-3.591-0.253-7.747-3-9c-0.972-6.695-2.432-12.902-6-17c1.302-14.031,0.449-30.217,3-43c1.657-1.4,1.657-9.6,0-11
		c1.617-11.716,1.625-25.042,3-37c4.254,0.921,0.065-6.601,4-6c-0.364,3.364,4.333,1.667,6,3c0.575-1.758-1.209-5.875,1-6
		c1.395,1.938,5.176,1.491,7,3c0.224-0.776,0.027-1.973,1-2c-3.444,42.556-4.493,87.507-4,134c0,1,0,2,0,3
		c-2.007,1.228-4.26,4.9-7,8C470.167,618.5,469.833,618.5,469.5,618.5z"/>
        <path class="twig-st54" d="M291.5,610.5c2.295,2.038,0.362,8.305,1,12c-0.333,0-0.667,0-1,0C291.5,618.5,291.5,614.5,291.5,610.5z"/>
        <path class="twig-st23" d="M309.5,620.5c2.27,1.063,0.381,6.286,1,9c-2.384-2.797-1.088-6.291-5-3c-0.149-5.395-2.246-2.626-5-5
		c0-1,0-2,0-3c1.987-0.013,1.271-2.729,4-2c0.213,4.153,4.46,4.868,4,7C308.555,622.222,309.782,622.115,309.5,620.5z"/>
        <path class="twig-st51" d="M314.5,617.5c0.712,5.621,1.288,11.379,2,17c-2.261,0.405,0.528,5.861-4,4c-0.333,0-0.667,0-1,0
		c0-0.333,0-0.667,0-1c0-2.667,0-5.333,0-8C311.878,624.878,313.411,621.411,314.5,617.5z"/>
        <path class="twig-st32" d="M475.5,628.5c-0.807-0.86-2.739-0.594-3-2c-0.969-4.844,2.896-2.314,5-2c0,1.333,0,2.667,0,4
		C476.378,628.602,475.943,627.047,475.5,628.5z"/>
        <path class="twig-st11" d="M485.5,631.5c-0.224-0.775-0.027-1.973-1-2c-0.017,2.983-7.41-1.41-6,3c-0.973-0.027-0.776-1.225-1-2
		c0.264-5.403,7.26-4.073,11-6c-0.839,1.161-1.319,2.681-1,5C486.414,629.747,486.821,631.488,485.5,631.5z"/>
        <path class="twig-st24" d="M293.5,636.5c0.184-0.851-0.39-0.943-1-1c0-4.333,0-8.667,0-13c-0.638-3.695,1.295-9.962-1-12
		c0-0.333,0-0.667,0-1c1.664-5.684,1.664-18.316,0-24c0-3.333,0-6.667,0-10c0-0.667,0-1.333,0-2c1.357,0.31,0.83,2.504,1,4
		c7.12,1.119,4.431-7.569,10-8c0-1.667,0-3.333,0-5c1.172,0.161,0.843,1.823,1,3c0.627,3.039-1.28,8.613,1,10c0,0.667,0,1.333,0,2
		c-3.475,9.038-7.259,20.201-4,33c0,2,0,4,0,6c0,1,0,2,0,3c0.105,8.054,0.009,13.064,1,16c0,0.333,0,0.667,0,1
		C299.708,642.448,295.292,638.456,293.5,636.5z"/>
        <path class="twig-st56" d="M526.5,633.5c-2.831,0.164,0.831-6.164-2-6c-6.203,2.337-2.644,8.758-6,13c-0.204-1.891,0.675-9.88-1-7
		c-0.595,2.071,1.236,6.569-1,7c0.664-5.896-1.14-3.53-3-6c-0.156,1.177,0.172,2.839-1,3c-0.688-4.021,0.958-5.709,1-9
		c0-1.667,0-3.333,0-5c5.493-0.507,9.038-2.962,13-5c0,3.333,0,6.667,0,10C526.5,630.167,526.5,631.833,526.5,633.5z"/>
        <path class="twig-st9" d="M265.5,629.5c4.225,3.108,7.25,7.417,10,12c-1.414,4.446,0.656,6.893,3,10c-1.605,2.444-3.355,5.078-1,7
		c-0.168,1.165-1.581,1.086-3,1c-1.755-6.911-4.71-12.623-7-19c0.333,0,0.667,0,1,0c0.012-1.322,1.752-0.914,2-2
		C267.242,637.092,268.244,631.423,265.5,629.5z"/>
        <path class="twig-st39" d="M527.5,628.5c-0.645,4.355,1.305,11.305-1,14c0-1.333,0-2.667,0-4c0-1.667,0-3.333,0-5s0-3.333,0-5
		C526.833,628.5,527.167,628.5,527.5,628.5z"/>
        <path class="twig-st24" d="M445.5,640.5c0-1,0-2,0-3c4.897-11.932,8.494-19.952,15-31c1.689,1.978,1.092,6.241,2,9c0,0.333,0,0.667,0,1
		c-1.897,6.103-8.956,7.044-9,15c-5.043,7.711,2.07,17.104,3,26c1.394,13.335-6.712,20.083-9,34c-0.662-10.671,1.327-23.994-1-33
		c0-2.333,0-4.667,0-7c1.657-1.4,1.657-9.6,0-11C446.167,640.5,445.833,640.5,445.5,640.5z"/>
        <path class="twig-st43" d="M316.5,634.5c1.036,2.631,1.197,6.137,1,10c-3.265-3.146-4.943,0.934-4,5c-0.333,0-0.667,0-1,0
		c0-0.667,0-1.333,0-2c0-3,0-6,0-9C317.028,640.361,314.239,634.905,316.5,634.5z"/>
        <path class="twig-st32" d="M476.5,641.5c1.086-0.247,0.679-1.988,2-2c0,1,0,2,0,3c0,1.333,0,2.667,0,4c0,1,0,2,0,3
		c-0.81,0.19-0.997,1.003-2,1c0-0.333,0-0.667,0-1c0.424-2.09-0.686-2.648-1-4C475.076,643.41,476.186,642.852,476.5,641.5z"/>
        <path class="twig-st27" d="M526.5,638.5c0,1.333,0,2.667,0,4c0,4,0,8,0,12c0,2.667,0,5.333,0,8
		C524.836,656.816,524.836,644.184,526.5,638.5z"/>
        <path class="twig-st38" d="M504.5,642.5c0.851-0.184,0.943,0.39,1,1c-4.152,0.273-1.725,5.254-8,6c-1.686-0.095-6.446-0.997-11-1
		c1.574-5.086,9.992,1.139,11-3c4.182,0.848,3.959-2.708,6-4C503.557,642.11,503.649,642.684,504.5,642.5z"/>
        <path class="twig-st2" d="M275.5,641.5c3.008,2.992,5.156,6.844,7,11c1.464,13.583,9.608,29.023,13,44c0,0.333,0,0.667,0,1s0,0.667,0,1
		c0,1.333,0,2.667,0,4c-5.785-0.451-5.855,4.812-11,5c0.335-5.335-1.245-8.756-2-13c1.161,0.84,2.681,1.319,5,1
		c-2.231-1.103-0.699-5.968-5-5c-0.333,0-0.667,0-1,0c-1.191-11.476-4.313-21.021-7-31c1.419,0.086,2.832,0.165,3-1
		c-2.355-1.922-0.605-4.556,1-7C276.156,648.393,274.086,645.946,275.5,641.5z"/>
        <path class="twig-st11" d="M486.5,642.5c-0.156,1.177,0.172,2.839-1,3c-0.973,0.027-0.776,1.225-1,2c-3.045-1.493-3.889,0.328-6-1
		c0-1.333,0-2.667,0-4c1.926-1.941,4.023,1.052,7,1c0-0.667,0-1.333,0-2C486.351,641.316,486.443,641.89,486.5,642.5z"/>
        <path class="twig-st43" d="M475.5,645.5c0.314,1.352,1.424,1.91,1,4c-2.322,2.203-5.678-0.198-8-1c-0.458-4.104,2.137,0.407,5-1
		C474.586,647.253,474.179,645.512,475.5,645.5z"/>
        <path class="twig-st42" d="M446.5,663.5c-2.322-5.678-0.342-15.658-1-23c0.333,0,0.667,0,1,0c0,3.667,0,7.333,0,11c0,2.333,0,4.667,0,7
		C446.5,660.167,446.5,661.833,446.5,663.5z"/>
        <path class="twig-st45" d="M485.5,650.5c0-0.333,0-0.667,0-1c0.61-0.057,1.184-0.149,1-1c4.554,0.003,9.314,0.905,11,1
		c-1.834,3.166-9.135,0.865-12,3C485.5,651.833,485.5,651.167,485.5,650.5z"/>
        <path class="twig-st45" d="M446.5,651.5c0-3.667,0-7.333,0-11C448.157,641.9,448.157,650.1,446.5,651.5z"/>
        <path class="twig-st60" d="M293.5,658.5c0.184-0.851-0.39-0.943-1-1c0-2.667,0-5.333,0-8c0-4.667,0-9.333,0-14
		c0.61,0.057,1.184,0.149,1,1c0,1.667,0,3.333,0,5c4.283-0.617,4.077,3.256,8,3c0,5,0,10,0,15
		C297.972,657.96,297.028,660.04,293.5,658.5z"/>
        <path class="twig-st33" d="M317.5,644.5c0.042,3.291,1.688,4.979,1,9c-1.322-0.012-0.914-1.753-2-2c-0.168,1.165-1.581,1.086-3,1
		c0-1,0-2,0-3C312.557,645.434,314.235,641.354,317.5,644.5z"/>
        <path class="twig-st43" d="M302.5,660.5c-1.917-0.111,1.175-3.349,0-6c4.738,0.738,6.875-1.125,11-1c0,2,0,4,0,6
		C309.317,659.175,305.738,663.009,302.5,660.5z"/>
        <path class="twig-st29" d="M526.5,667.5c0-1.667,0-3.333,0-5c0-2.667,0-5.333,0-8c2.328,9.672,0.337,23.663,1,35
		c-2.28-1.387-0.373-6.961-1-10c0-2.333,0-4.667,0-7C526.5,670.833,526.5,669.167,526.5,667.5z"/>
        <path class="twig-st48" d="M446.5,684.5c0-7,0-14,0-21c0-1.667,0-3.333,0-5c2.327,9.006,0.338,22.329,1,33c-0.17,1.496,0.357,3.69-1,4
		C446.5,691.833,446.5,688.167,446.5,684.5z"/>
        <path class="twig-st56" d="M282.5,652.5c3.8,5.533,6.675,11.991,9,19c0.211,1.122,1.11,1.557,2,2c0.074,6.259,3.109,9.558,4,15
		c-2.964,1.453,1.317,3.9,0,7c-1.003-0.003-1.19,0.81-2,1C292.108,681.523,283.964,666.083,282.5,652.5z"/>
        <path class="twig-st35" d="M292.5,663.5c2.28,1.387,0.373,6.961,1,10c-0.89-0.443-1.789-0.878-2-2
		C293.755,670.755,291.891,665.891,292.5,663.5z"/>
        <path class="twig-st38" d="M482.5,676.5c-0.783-5.783,1.451-8.549,1-14c2.907-0.76-0.907-8.24,2-9c0,6,0,12,0,18
		c-1.122,0.212-1.557,1.109-2,2C483.586,674.919,483.665,676.332,482.5,676.5z"/>
        <path class="twig-st46" d="M526.5,667.5c0,1.667,0,3.333,0,5c-5.137-0.904-9.672,6.824-16,8c0-1,0-2,0-3c0-0.333,0-0.667,0-1
		c2.169,0.169,0.453-3.547,1-5c6.972-0.695,9.822-5.511,13-10C525.105,663.562,522.887,668.447,526.5,667.5z"/>
        <path class="twig-st20" d="M483.5,662.5c0.451,5.451-1.783,8.217-1,14c-0.529,0.805-1.043,1.623-1,3c-2.888-2.445-1.798-8.869-2-14
		c0.138-4.153,0.658-0.202,2,0C480.208,661.945,483.92,656.406,483.5,662.5z"/>
        <path class="twig-st11" d="M319.5,666.5c-0.564,4.563,1.772,6.228,1,11c-1.003,0.003-1.19-0.81-2-1c-1.837,1.163,0.526,6.525-4,5
		c-0.769,3.769,1.22,4.78,1,8c-1.333,0-2.667,0-4,0c-0.267-3.601,1.847-4.819,2-8c0.954-3.084,2.268-11.015,1-13
		c0-0.333,0-0.667,0-1c1.927-0.406,0.79-3.877,4-3C318.724,665.275,318.527,666.473,319.5,666.5z"/>
        <path class="twig-st37" d="M526.5,672.5c0,2.333,0,4.667,0,7c-0.333,0-0.667,0-1,0c-1.667,7-9.369,7.964-15,11c0-3.333,0-6.667,0-10
		C516.828,679.324,521.363,671.596,526.5,672.5z"/>
        <path class="twig-st45" d="M481.5,679.5c-0.043-1.377,0.471-2.195,1-3c1.165-0.168,1.086-1.581,1-3c3.411,0.416-1.512,5.483,1,5
		c0.485-1.182,1.066-2.268,2-3c-0.033,4.367,0.868,7.798,2,11c-0.101,3.101,1.223,4.777,2,7c0.898-1.406,6.643-3.595,4,0
		c4.854-2.504,3.146,0.504,8-2c0.28,4.848,5.968-1.512,7,3c0,4.333,0,8.667,0,13c-1.922,1.061-7.592-0.871-9,3
		c0.973,0.027,0.776,1.225,1,2c3.897-1.335,5.185,0.516,8-1c0,1.667,0,3.333,0,5c-3.078-0.7-1.922-0.7-5,0
		c-0.212-2.879-6.224-5.694-7-2c-2.187-0.147-2.147-2.52-2-5c-1.479,0.521-2.521,1.479-4,2c-0.011-2.656,0.378-5.711-1-7
		c0.353-5.686-2.084-8.583-2-14c-2.423,0.577-2.224,3.776-3,6c-1.44-0.227-0.349-2.984-2-3
		C480.545,691.122,484.455,681.878,481.5,679.5z"/>
        <path class="twig-st33" d="M303.5,684.5c-2.322-5.678-0.342-15.658-1-23c0-0.333,0-0.667,0-1c3.238,2.509,6.817-1.325,11-1c0-2,0-4,0-6
		c2.168-0.169,0.453,3.547,1,5c0,3,0,6,0,9c0,0.333,0,0.667,0,1s0,0.667,0,1c-4.752-0.419-7.212,1.454-11,2
		C303.5,675.833,303.5,680.167,303.5,684.5z"/>
        <path class="twig-st23" d="M481.5,689.5c0-3.333,0-6.667,0-10c2.955,2.378-0.955,11.622,2,14c0,0.333,0,0.667,0,1
		c-0.81-0.19-0.997-1.003-2-1C481.5,692.167,481.5,690.833,481.5,689.5z"/>
        <path class="twig-st56" d="M510.5,680.5c0,3.333,0,6.667,0,10c0,1.333,0,2.667,0,4c-0.333,0-0.667,0-1,0c-1.032-4.512-6.72,1.848-7-3
		c-4.854,2.504-3.146-0.504-8,2c2.643-3.595-3.102-1.406-4,0c-0.777-2.223-2.101-3.899-2-7c4.438-2.229,7.572-5.761,12-8
		c2.462,4.561,5.749-1.353,10-1C510.5,678.5,510.5,679.5,510.5,680.5z"/>
        <path class="twig-st19" d="M438.5,700.5c0.099-3.175-0.81-13.63,2-8c-0.333,0-0.667,0-1,0c0,2.667,0,5.333,0,8
		C439.167,700.5,438.833,700.5,438.5,700.5z"/>
        <path class="twig-st9" d="M282.5,694.5c0-1.333,0-2.667,0-4c4.301-0.968,2.769,3.897,5,5C285.181,695.819,283.661,695.34,282.5,694.5z"
		/>
        <path class="twig-st59" d="M481.5,693.5c1.003-0.003,1.19,0.81,2,1c0,2,0,4,0,6c0,2.333,0,4.667,0,7c-0.333,0-0.667,0-1,0
		c0-2.333,0-4.667,0-7C483.302,697.031,481.011,696.656,481.5,693.5z"/>
        <path class="twig-st38" d="M484.5,708.5c-0.609-2.391,1.255-7.256-1-8c0-2,0-4,0-6c0-0.333,0-0.667,0-1c1.651,0.016,0.56,2.773,2,3
		c0.776-2.224,0.577-5.423,3-6c-0.084,5.417,2.353,8.314,2,14c-1.23,1.117-2.054,0.871-2-1C486.293,704.293,487.2,708.2,484.5,708.5
		z"/>
        <path class="twig-st56" d="M295.5,698.5c3.42,1.52,1.42,6.173-2,8c-2.968-1.923-6.058,4.575-8,7c0.725-3.059-1.725-2.941-1-6
		c5.145-0.188,5.215-5.451,11-5C295.5,701.167,295.5,699.833,295.5,698.5z"/>
        <path class="twig-st61" d="M299.5,693.5c1.579,2.087,2.074,5.26,2,9c-0.333,0-0.667,0-1,0c-0.17-1.496,0.357-3.69-1-4
		C299.5,696.833,299.5,695.167,299.5,693.5z"/>
        <path class="twig-st42" d="M445.5,707.5c0.658-7.342-1.322-17.322,1-23c0,3.667,0,7.333,0,11
		C445.862,699.195,447.795,705.462,445.5,707.5z"/>
        <path class="twig-st17" d="M297.5,708.5c-0.787-3.453,0.935-4.398,3-5c0-0.333,0-0.667,0-1c0.333,0,0.667,0,1,0c0,2.333,0,4.667,0,7
		C300.61,708.724,299.242,708.425,297.5,708.5z"/>
        <path class="twig-st1" d="M308.5,704.5c-0.319-2.319,0.161-3.839,1-5c3.008-1.008,1.772,2.228,2,4c0.826,2.826-1.409,2.591-1,5
		c-1.326,1.674-2.649,3.351-2,7c-1.486,0.847-1.447,3.22-2,5c0,1,0,2,0,3c-2.86-0.14-1.829-4.171-2-7c0-1.667,0-3.333,0-5
		c0-0.667,0-1.333,0-2C307.644,709.644,307.936,706.936,308.5,704.5z"/>
        <path class="twig-st34" d="M303.5,710.5c-0.81-0.19-0.997-1.003-2-1c0-2.333,0-4.667,0-7c0.074-3.74-0.421-6.913-2-9
		c-1.486-0.847-1.447-3.22-2-5c-0.891-5.442-3.926-8.741-4-15c-0.627-3.039,1.28-8.613-1-10c0-2,0-4,0-6c0.61,0.057,1.184,0.149,1,1
		c-0.584,6.775,2.974,3.892,7,5c0.211-1.122,1.11-1.557,2-2c0.658,7.342-1.322,17.322,1,23c0,3.667,0,7.333,0,11
		C304.46,701.697,301.644,706.354,303.5,710.5z"/>
        <path class="twig-st33" d="M303.5,710.5c-1.856-4.146,0.96-8.803,0-15c0.333,0,0.667,0,1,0c0,3.333,0,6.667,0,10c0,1.333,0,2.667,0,4
		c0,0.667,0,1.333,0,2C303.649,711.684,303.557,711.11,303.5,710.5z"/>
        <path class="twig-st37" d="M491.5,711.5c-0.779-0.221-1.163-0.838-1-2c-4.121-0.788-1.879,4.788-6,4c0-1.667,0-3.333,0-5
		c2.7-0.3,1.793-4.207,4-5c-0.054,1.871,0.77,2.117,2,1C491.878,705.789,491.489,708.844,491.5,711.5z"/>
        <path class="twig-st17" d="M528.5,712.5c0.627,3.039-1.28,8.613,1,10c0,0.333,0,0.667,0,1c0,1.333,0,2.667,0,4
		c-3.505,0.828-2.788,5.879-5,8c-1.667,0-3.333,0-5,0c-0.333,0-0.667,0-1,0c-2.667,0-5.333,0-8,0c-0.813-10.699,0.532-22.695,3-27
		c7.236-0.073,2.58-8.411,13-11c0.595,2.071-1.236,6.569,1,7C529.755,705.244,527.891,710.109,528.5,712.5z"/>
        <path class="twig-st26" d="M528.5,712.5c2.255,0.744,0.391,5.609,1,8c0,0.667,0,1.333,0,2C527.22,721.113,529.127,715.539,528.5,712.5z"
		/>
        <path class="twig-st45" d="M287.5,734.5c-0.333,0-0.667,0-1,0c0.75-8.083-1.19-13.477-1-21c1.942-2.425,5.032-8.923,8-7
		c-10.91,5.695-3.005,19.563,7,21c0,2.333,0,4.667,0,7C295.165,733.933,291.745,736.821,287.5,734.5z"/>
        <path class="twig-st4" d="M304.5,725.5c-2.321-1.738-0.46-6.944-2-7c0.443-0.891,0.878-1.788,2-2c0.171,2.829-0.86,6.86,2,7
		c0,0.667,0,1.333,0,2c-0.333,0-0.667,0-1,0S304.833,725.5,304.5,725.5z"/>
        <path class="twig-st42" d="M529.5,723.5c0-0.333,0-0.667,0-1c0-0.667,0-1.333,0-2c1.901,3.099,6.768,3.232,12,3
		c-0.225,0.775-0.027,1.973-1,2c-4.258,0.591-6.614-0.719-10-1C530.443,723.89,530.351,723.316,529.5,723.5z"/>
        <path class="twig-st58" d="M412.5,725.5c-0.239-4.095-3.397-5.27-4-9c4.024,1.976,4.837,7.163,9,9c1.004,1.329,0.946,3.721,3,4
		c-0.171,1.714,5.671,3.933,1,4c-1.333,0-2.667,0-4,0C415.673,730.993,415.419,726.914,412.5,725.5z"/>
        <path class="twig-st42" d="M420.5,729.5c-2.054-0.279-1.996-2.671-3-4c6.842-1.824,16-1.333,21-5c0.333,0,0.667,0,1,0c0,1,0,2,0,3
		C431.779,724.112,426.967,727.634,420.5,729.5z"/>
        <path class="twig-st40" d="M530.5,724.5c3.386,0.281,5.742,1.591,10,1c-0.485,1.182-1.066,2.267-2,3
		C535.18,727.82,531.413,727.587,530.5,724.5z"/>
        <path class="twig-st30" d="M305.5,725.5c0,3.333,0,6.667,0,10c0,1,0,2,0,3c-0.333,0-0.667,0-1,0c-0.619-2.714,1.27-7.937-1-9
		c-1.129,1.204-2.854,1.813-2,5c-0.333,0-0.667,0-1,0c0-2.333,0-4.667,0-7c0-0.667,0-1.333,0-2c1.763-3.042,3.097,2.729,4,0
		C304.833,725.5,305.167,725.5,305.5,725.5z"/>
        <path class="twig-st9" d="M305.5,735.5c0-3.333,0-6.667,0-10c0.333,0,0.667,0,1,0c0.779-0.221,1.163-0.838,1-2
		c1.652,3.015,11.006-1.673,11,3c0,1.667,0,3.333,0,5c0,0.667,0,1.333,0,2C313.789,733.789,311.42,736.42,305.5,735.5z"/>
        <path class="twig-st18" d="M439.5,725.5c0,4.333,0,8.667,0,13c-3.812-1.855-9.146-2.188-9-8
		C432.233,727.566,435.189,725.856,439.5,725.5z"/>
        <path class="twig-st4" d="M473.5,728.5c0.08,0.81,1.558,9.7-2,10c-3.931-0.069-7.517-0.483-10-2c1.177-0.156,2.839,0.172,3-1
		c-3.021-7.633-6.122-18.303-6-27c0.03-2.174,2.989-4.389,3-7c0.014-3.35-2.3-7.117-2-10c0.912-8.766,7.199-21.021,7-30
		c-0.102-4.598-2.425-5.258-6-10c-8.039-10.662-4.231-23.77,3-32c0-0.667,0-1.333,0-2c1.184-1.483,3.777-1.556,5-3
		c1.48,0.186,0.917,2.416,1,4c-1.68,1.654-5.871,0.796-5,5c0,0.333,0,0.667,0,1c-12.708,6.362-5.432,25.969,5,29
		c1.133,11.867,2.532,23.468,3,36c0.642,4.024-1.3,10.634,1,13c-0.38,2.938-2.247,9.348,0,14C473.5,720.5,473.5,724.5,473.5,728.5z"
		/>
        <path class="twig-st58" d="M565.5,726.5c1.502-1.498,2.992-3.008,4-5c0.639,3.664-3.207,11.44-7,14c-1.453-0.547-5.169,1.169-5-1
		c2.092-1.242,3.759-2.908,5-5C562.611,727.611,565.806,728.806,565.5,726.5z"/>
        <path class="twig-st42" d="M412.5,725.5c2.919,1.414,3.173,5.493,5,8c1.333,0,2.667,0,4,0c4.03,4.303,11.753,4.914,18,7
		c0,0.333,0,0.667,0,1c-14.457-0.543-25.03-4.97-37-8c0-0.667,0-1.333,0-2C403.591,727.257,412.899,731.232,412.5,725.5z"/>
        <path class="twig-st38" d="M493.5,735.5c-1.546-1.454-0.881-5.119-1-8c0.664-5.997-0.907-9.76-1-15c0-0.333,0-0.667,0-1
		c1.479-0.521,2.521-1.479,4-2c-0.147,2.48-0.187,4.853,2,5c0.776-3.694,6.788-0.879,7,2c3.078-0.7,1.922-0.7,5,0
		c0,6.333,0,12.667,0,19c-0.667,0-1.333,0-2,0c-1.667,0-3.333,0-5,0c-2,0-4,0-6,0C495.5,735.5,494.5,735.5,493.5,735.5z"/>
        <path class="twig-st43" d="M483.5,726.5c0.595,2.071-1.236,6.569,1,7c0,0.667,0,1.333,0,2c-0.61,0.057-1.184,0.149-1,1
		c-2.383-3.95-1.734-6.44-1-10C482.833,726.5,483.167,726.5,483.5,726.5z"/>
        <path class="twig-st17" d="M493.5,735.5c-3,0-6,0-9,0c0-0.667,0-1.333,0-2c0.547-1.453-1.169-5.169,1-5c0.224,0.775,0.027,1.973,1,2
		c0.908-2.092,2.951-3.049,6-3C492.619,730.381,491.954,734.046,493.5,735.5z"/>
        <path class="twig-st8" d="M530.5,733.5c0.947,3.613-3.938,1.395-6,2c2.212-2.121,1.495-7.172,5-8
		C531.709,727.625,529.925,731.742,530.5,733.5z"/>
        <path class="twig-st40" d="M533.5,737.5c-0.225,0.775-0.027,1.973-1,2c-10.539,1.128-19.945,3.389-32,3
		C511.347,740.68,523.047,739.714,533.5,737.5z"/>
        <path class="twig-st36" d="M471.5,739.5c1.758,0.575,5.875-1.209,6,1c-8.819,1.14-18.727-1.922-24-1c-1.165-0.168-1.086-1.581-1-3
		C458.226,738.107,463.598,740.068,471.5,739.5z"/>
        <path class="twig-st42" d="M500.5,742.5c12.055,0.389,21.461-1.872,32-3c-0.138,1.862-0.658,3.342-2,4c-7.527-3.208-17.469,0.417-30,1
		c-16.351,0.761-35.367-1.688-46,1c0-0.667,0-1.333,0-2c0-0.333,0-0.667,0-1c13.581,0.757,31.706,2.288,45,0
		C499.833,742.5,500.167,742.5,500.5,742.5z"/>
        <path class="twig-st37" d="M303.5,742.5c0-0.333,0-0.667,0-1c1.165-0.168,1.086-1.581,1-3c0.333,0,0.667,0,1,0c0,1,0,2,0,3
		c0,2.667,0,5.333,0,8C302.636,749.364,306.364,742.636,303.5,742.5z"/>
        <path class="twig-st62" d="M454.5,743.5c-1.48-0.186-0.917-2.417-1-4c5.273-0.922,15.181,2.14,24,1c1.496,0.171,3.69-0.357,4,1
		c-6.333,0-12.667,0-19,0c-0.994-0.876-8.659-2.783-8,1C454.5,742.833,454.5,743.167,454.5,743.5z"/>
        <path class="twig-st48" d="M327.5,750.5c-2.255-0.745-0.391-5.609-1-8c0-1.667,0-3.333,0-5c0-1,0-2,0-3c0-0.667,0-1.333,0-2c0-1,0-2,0-3
		c-0.086-1.419-0.165-2.832,1-3C327.5,734.5,327.5,742.5,327.5,750.5z"/>
        <path class="twig-st17" d="M326.5,742.5c0.609,2.391-1.255,7.255,1,8c0,1.667,0,3.333,0,5c-3.027-1.376-3.573,0.476-8,0c0-4,0-8,0-12
		C322.969,744.302,323.344,742.011,326.5,742.5z"/>
        <path class="twig-st30" d="M318.5,753.5c0-1.667,0-3.333,0-5c0-2.333,0-4.667,0-7c2.288-3.546,3.642-2.167,8-4c0,1.667,0,3.333,0,5
		c-3.156-0.489-3.531,1.802-7,1c0,4,0,8,0,12C318.527,755.473,318.724,754.275,318.5,753.5z"/>
        <path class="twig-st62" d="M279.5,754.5c0-1,0-2,0-3c2.236,0.431,0.405,4.929,1,7c-3.677,0.759-2.078,7.987,1,8c0,0.333,0,0.667,0,1
		c-7.747-0.394-10.842-9.685-2-11c0-0.333,0-0.667,0-1S279.5,754.833,279.5,754.5z"/>
        <path class="twig-st30" d="M304.5,755.5c-0.258-4.408-1.598-7.735-1-13c2.864,0.136-0.864,6.864,2,7c0,0.333,0,0.667,0,1
		c0,2.333,0,4.667,0,7c0,0.333,0,0.667,0,1C304.328,758.339,304.657,756.677,304.5,755.5z"/>
        <path class="twig-st36" d="M325.5,766.5c0.15-1.85,3.386-0.613,4-2c-0.253-3.414-2.528-4.805-2-9c0-1.667,0-3.333,0-5
		c1.172,0.161,0.843,1.823,1,3c0,0.667,0,1.333,0,2c0,0.333,0,0.667,0,1c-0.03,3.363,4.63,2.037,6,4
		C334.011,765.011,330.434,766.434,325.5,766.5z"/>
        <path class="twig-st58" d="M357.5,757.5c2.059-2.941,4.522-5.478,6-9c1.895,1.318-0.928,6.339-1,9
		C361.894,758.076,357.757,759.841,357.5,757.5z"/>
        <path class="twig-st23" d="M302.5,562.5c0.667,0,1.333,0,2,0c1.44-0.227,0.349-2.984,2-3c-0.58,3.246,0.681,4.652,1,7
		c-1.891-0.225-2.207,1.127-4,1c-0.157-1.177,0.172-2.839-1-3C302.5,563.833,302.5,563.167,302.5,562.5z"/>
        <path class="twig-st23" d="M304.5,579.5c2.204,4.796,0.559,13.441,3,18c0,2,0,4,0,6c-0.278,6.94-1.898,6.605-7,9
		C297.241,599.701,301.025,588.538,304.5,579.5z"/>
        <path class="twig-st23" d="M302.5,745.5c0,4.333,0,8.667,0,13c0,2,0,4,0,6c-5.429,0.762-8.1-1.233-13-1c0.148-3.815-2.518-4.815-3-8
		c2.236-0.431,0.405-4.929,1-7c4.667,0,9.333,0,14,0c0-1,0-2,0-3C301.833,745.5,302.167,745.5,302.5,745.5z"/>
        <path class="twig-st59" d="M303.5,742.5c-0.598,5.265,0.742,8.592,1,13c-1.651,0.016-0.56,2.773-2,3c0-4.333,0-8.667,0-13
		c0.17-1.496-0.357-3.69,1-4C303.5,741.833,303.5,742.167,303.5,742.5z"/>
        <path class="twig-st41" d="M439.5,700.5c0,6.667,0,13.333,0,20c-0.333,0-0.667,0-1,0c0-6.667,0-13.333,0-20
		C438.833,700.5,439.167,700.5,439.5,700.5z"/>
        <path class="twig-st15" d="M294.5,492.5c0.708,3.708-1.708,4.292-1,8c-1.654-6.68-2.651-14.016-3-22c0-1.333,0-2.667,0-4
		C292.66,479.674,293.189,486.478,294.5,492.5z"/>
        <path class="twig-st32" d="M314.5,668.5c1.268,1.985-0.046,9.916-1,13c-1.814,2.853-2.67,6.663-9,5c0,3,0,6,0,9c-0.333,0-0.667,0-1,0
		c0-3.667,0-7.333,0-11c0-4.333,0-8.667,0-13c3.788-0.546,6.248-2.419,11-2C314.5,669.167,314.5,668.833,314.5,668.5z"/>
        <path class="twig-st43" d="M494.5,448.5c0.785,4.118-1.535,5.132-1,9c-1.734,4.703-8.495-0.629-11,2c-0.563-4.563,1.772-6.228,1-11
		C484.197,443.979,491.441,445.364,494.5,448.5z"/>
        <path class="twig-st51" d="M470.5,620.5c2.209,0.125,0.425,4.242,1,6c-1.667,0-3.333,0-5,0c-0.779-0.221-1.163-0.838-1-2
		c1.742-0.924,5.367,0.034,5-3C470.5,621.167,470.5,620.833,470.5,620.5z"/>
        <path class="twig-st56" d="M312.5,703.5c9.622,1.77,13.38,11.592,11,20c2.729,0.091,2.013-1.666,4,0c0,1,0,2,0,3
		c-1.165,0.168-1.086,1.581-1,3c-2.333,0-4.667,0-7,0c0.163,1.162-0.221,1.779-1,2c0-1.667,0-3.333,0-5c1.481-0.186,0.917-2.417,1-4
		c-3.255,1.513-10.617,0.459-12,1c0.163,1.162-0.221,1.779-1,2c0-0.667,0-1.333,0-2c0-1,0-2,0-3c5.745,2.164,12.533,0.113,15-1
		c3.175-7.332-3.27-14.136-8-13c3.723,1.387-2.943,0.15-2,2c-0.333,0-0.667,0-1,0c-0.409-2.409,1.826-2.174,1-5
		C311.833,703.5,312.167,703.5,312.5,703.5z"/>
        <path class="twig-st37" d="M510.5,694.5c-0.651,5.349,1.313,13.313-1,17c0-1.333,0-2.667,0-4c0-4.333,0-8.667,0-13
		C509.833,694.5,510.167,694.5,510.5,694.5z"/>
        <path class="twig-st9" d="M296.5,505.5c2.208,0.125,0.425,4.242,1,6c0.054,1.721-0.77,2.563-2,3c0-0.667,0-1.333,0-2
		C294.698,509.031,296.989,508.656,296.5,505.5z"/>
        <path class="twig-st2" d="M296.5,524.5c0.591-4.258-0.719-6.614-1-10c1.23-0.437,2.054-1.279,2-3c1.846,3.487,2.019,8.648,3,13
		c-3.093,0.24,1.563,8.23-3,7C297.49,528.844,297.878,525.789,296.5,524.5z"/>
        <path class="twig-st21" d="M320.5,684.5c9.128-5.324,24.578-16.824,44-12c-21.848,2.151-31.309,16.691-35,37
		c-1.278,0.055-1.385,1.282-3,1c-0.85-8.607-7.381-5.763-13-10c1.483-0.85,2.15-2.517,2-5c0-0.667,0-1.333,0-2
		C318.466,691.799,319.958,688.624,320.5,684.5z"/>
        <path class="twig-st21" d="M499.5,580.5c4.674,6.326,9.705,12.295,16,17c0.156-1.177-0.172-2.839,1-3c0.673,5.006-0.926,7.74-1,12
		c0.667,0,1.333,0,2,0c-0.956,1.862,2.995,3.342,0,4c-1.321-0.012-0.914-1.753-2-2c1.515,4.765-0.805,2.485-1,7
		c-3.819,4.227-13.072-2.024-20-3c-1.043-10.376,3.977-14.69,3-25c0.319-2.348,1.58-3.754,1-7
		C498.833,580.5,499.167,580.5,499.5,580.5z"/>
        <path class="twig-st13" d="M468.5,612.5c0,0.667,0,1.333,0,2c-1.223,1.444-3.816,1.517-5,3c-0.057-0.61-0.149-1.184-1-1
		c0-0.333,0-0.667,0-1C465.484,615.484,465.9,612.9,468.5,612.5z"/>
        <path class="twig-st45" d="M300.5,527.5c2.643,5.357,2.007,13.993,4,20c-1,0-2,0-3,0c-0.157,1.177,0.172,2.839-1,3
		c-2.61-2.057,0.705-10.038-2-12C297.313,532.979,301.688,533.021,300.5,527.5z"/>
        <path class="twig-st40" d="M545.5,725.5c2.126,3.542,10.894,5.488,17,4c-1.241,2.092-2.908,3.758-5,5c-2.863-0.5-10.804,2.507-16,3
		C542.684,733.351,544.106,729.439,545.5,725.5z"/>
        <path class="twig-st33" d="M476.5,641.5c-0.314,1.352-1.424,1.91-1,4c-1.321,0.012-0.914,1.753-2,2c-2.815-2.104-5.136-0.646-1-3
		C474.539,644.206,474.461,641.794,476.5,641.5z"/>
    </g>
</svg>